%TF.GenerationSoftware,KiCad,Pcbnew,6.0.0+dfsg1-2*%
%TF.CreationDate,2022-01-11T20:59:38+02:00*%
%TF.ProjectId,aceitera,61636569-7465-4726-912e-6b696361645f,rev?*%
%TF.SameCoordinates,Original*%
%TF.FileFunction,Legend,Top*%
%TF.FilePolarity,Positive*%
%FSLAX46Y46*%
G04 Gerber Fmt 4.6, Leading zero omitted, Abs format (unit mm)*
G04 Created by KiCad (PCBNEW 6.0.0+dfsg1-2) date 2022-01-11 20:59:38*
%MOMM*%
%LPD*%
G01*
G04 APERTURE LIST*
G04 Aperture macros list*
%AMRoundRect*
0 Rectangle with rounded corners*
0 $1 Rounding radius*
0 $2 $3 $4 $5 $6 $7 $8 $9 X,Y pos of 4 corners*
0 Add a 4 corners polygon primitive as box body*
4,1,4,$2,$3,$4,$5,$6,$7,$8,$9,$2,$3,0*
0 Add four circle primitives for the rounded corners*
1,1,$1+$1,$2,$3*
1,1,$1+$1,$4,$5*
1,1,$1+$1,$6,$7*
1,1,$1+$1,$8,$9*
0 Add four rect primitives between the rounded corners*
20,1,$1+$1,$2,$3,$4,$5,0*
20,1,$1+$1,$4,$5,$6,$7,0*
20,1,$1+$1,$6,$7,$8,$9,0*
20,1,$1+$1,$8,$9,$2,$3,0*%
G04 Aperture macros list end*
%ADD10C,0.127000*%
%ADD11C,0.100000*%
%ADD12C,0.150000*%
%ADD13C,0.120000*%
%ADD14R,1.350000X1.350000*%
%ADD15O,1.350000X1.350000*%
%ADD16RoundRect,0.250000X0.325000X0.450000X-0.325000X0.450000X-0.325000X-0.450000X0.325000X-0.450000X0*%
%ADD17R,1.600000X1.600000*%
%ADD18C,1.600000*%
%ADD19R,1.900000X0.800000*%
%ADD20RoundRect,0.250000X-0.325000X-0.450000X0.325000X-0.450000X0.325000X0.450000X-0.325000X0.450000X0*%
%ADD21R,1.800000X1.800000*%
%ADD22C,1.800000*%
G04 APERTURE END LIST*
D10*
%TO.C,RV1*%
X103917809Y-90912904D02*
X103651142Y-90531952D01*
X103460666Y-90912904D02*
X103460666Y-90112904D01*
X103765428Y-90112904D01*
X103841619Y-90151000D01*
X103879714Y-90189095D01*
X103917809Y-90265285D01*
X103917809Y-90379571D01*
X103879714Y-90455761D01*
X103841619Y-90493857D01*
X103765428Y-90531952D01*
X103460666Y-90531952D01*
X104146380Y-90112904D02*
X104413047Y-90912904D01*
X104679714Y-90112904D01*
X105365428Y-90912904D02*
X104908285Y-90912904D01*
X105136857Y-90912904D02*
X105136857Y-90112904D01*
X105060666Y-90227190D01*
X104984476Y-90303380D01*
X104908285Y-90341476D01*
D11*
X112185428Y-91127228D02*
X111842571Y-91127228D01*
X112014000Y-91127228D02*
X112014000Y-90527228D01*
X111956857Y-90612942D01*
X111899714Y-90670085D01*
X111842571Y-90698657D01*
D12*
%TO.C,C5*%
X106927666Y-83978714D02*
X106889571Y-84016809D01*
X106775285Y-84054904D01*
X106699095Y-84054904D01*
X106584809Y-84016809D01*
X106508619Y-83940619D01*
X106470523Y-83864428D01*
X106432428Y-83712047D01*
X106432428Y-83597761D01*
X106470523Y-83445380D01*
X106508619Y-83369190D01*
X106584809Y-83293000D01*
X106699095Y-83254904D01*
X106775285Y-83254904D01*
X106889571Y-83293000D01*
X106927666Y-83331095D01*
X107651476Y-83254904D02*
X107270523Y-83254904D01*
X107232428Y-83635857D01*
X107270523Y-83597761D01*
X107346714Y-83559666D01*
X107537190Y-83559666D01*
X107613380Y-83597761D01*
X107651476Y-83635857D01*
X107689571Y-83712047D01*
X107689571Y-83902523D01*
X107651476Y-83978714D01*
X107613380Y-84016809D01*
X107537190Y-84054904D01*
X107346714Y-84054904D01*
X107270523Y-84016809D01*
X107232428Y-83978714D01*
D10*
%TO.C,J1*%
X113398352Y-89007904D02*
X113398352Y-88207904D01*
X113779304Y-89007904D02*
X113779304Y-88207904D01*
X114236447Y-89007904D01*
X114236447Y-88207904D01*
X117322666Y-88246000D02*
X117256000Y-88207904D01*
X117156000Y-88207904D01*
X117056000Y-88246000D01*
X116989333Y-88322190D01*
X116956000Y-88398380D01*
X116922666Y-88550761D01*
X116922666Y-88665047D01*
X116956000Y-88817428D01*
X116989333Y-88893619D01*
X117056000Y-88969809D01*
X117156000Y-89007904D01*
X117222666Y-89007904D01*
X117322666Y-88969809D01*
X117356000Y-88931714D01*
X117356000Y-88665047D01*
X117222666Y-88665047D01*
X117656000Y-89007904D02*
X117656000Y-88207904D01*
X118056000Y-89007904D01*
X118056000Y-88207904D01*
X118389333Y-89007904D02*
X118389333Y-88207904D01*
X118556000Y-88207904D01*
X118656000Y-88246000D01*
X118722666Y-88322190D01*
X118756000Y-88398380D01*
X118789333Y-88550761D01*
X118789333Y-88665047D01*
X118756000Y-88817428D01*
X118722666Y-88893619D01*
X118656000Y-88969809D01*
X118556000Y-89007904D01*
X118389333Y-89007904D01*
X119569000Y-88207904D02*
X119702333Y-88207904D01*
X119769000Y-88246000D01*
X119835666Y-88322190D01*
X119869000Y-88474571D01*
X119869000Y-88741238D01*
X119835666Y-88893619D01*
X119769000Y-88969809D01*
X119702333Y-89007904D01*
X119569000Y-89007904D01*
X119502333Y-88969809D01*
X119435666Y-88893619D01*
X119402333Y-88741238D01*
X119402333Y-88474571D01*
X119435666Y-88322190D01*
X119502333Y-88246000D01*
X119569000Y-88207904D01*
X120169000Y-88207904D02*
X120169000Y-88855523D01*
X120202333Y-88931714D01*
X120235666Y-88969809D01*
X120302333Y-89007904D01*
X120435666Y-89007904D01*
X120502333Y-88969809D01*
X120535666Y-88931714D01*
X120569000Y-88855523D01*
X120569000Y-88207904D01*
X120802333Y-88207904D02*
X121202333Y-88207904D01*
X121002333Y-89007904D02*
X121002333Y-88207904D01*
X114977933Y-88703142D02*
X115511266Y-88703142D01*
X115244600Y-89007904D02*
X115244600Y-88398380D01*
X115744600Y-88207904D02*
X115977933Y-89007904D01*
X116211266Y-88207904D01*
D12*
%TO.C,C4*%
X130135333Y-90781142D02*
X130087714Y-90828761D01*
X129944857Y-90876380D01*
X129849619Y-90876380D01*
X129706761Y-90828761D01*
X129611523Y-90733523D01*
X129563904Y-90638285D01*
X129516285Y-90447809D01*
X129516285Y-90304952D01*
X129563904Y-90114476D01*
X129611523Y-90019238D01*
X129706761Y-89924000D01*
X129849619Y-89876380D01*
X129944857Y-89876380D01*
X130087714Y-89924000D01*
X130135333Y-89971619D01*
X130992476Y-90209714D02*
X130992476Y-90876380D01*
X130754380Y-89828761D02*
X130516285Y-90543047D01*
X131135333Y-90543047D01*
%TO.C,Q2*%
X117271809Y-83750095D02*
X117195619Y-83712000D01*
X117119428Y-83635809D01*
X117005142Y-83521523D01*
X116928952Y-83483428D01*
X116852761Y-83483428D01*
X116890857Y-83673904D02*
X116814666Y-83635809D01*
X116738476Y-83559619D01*
X116700380Y-83407238D01*
X116700380Y-83140571D01*
X116738476Y-82988190D01*
X116814666Y-82912000D01*
X116890857Y-82873904D01*
X117043238Y-82873904D01*
X117119428Y-82912000D01*
X117195619Y-82988190D01*
X117233714Y-83140571D01*
X117233714Y-83407238D01*
X117195619Y-83559619D01*
X117119428Y-83635809D01*
X117043238Y-83673904D01*
X116890857Y-83673904D01*
X117538476Y-82950095D02*
X117576571Y-82912000D01*
X117652761Y-82873904D01*
X117843238Y-82873904D01*
X117919428Y-82912000D01*
X117957523Y-82950095D01*
X117995619Y-83026285D01*
X117995619Y-83102476D01*
X117957523Y-83216761D01*
X117500380Y-83673904D01*
X117995619Y-83673904D01*
%TO.C,R3*%
X126104666Y-83800904D02*
X125838000Y-83419952D01*
X125647523Y-83800904D02*
X125647523Y-83000904D01*
X125952285Y-83000904D01*
X126028476Y-83039000D01*
X126066571Y-83077095D01*
X126104666Y-83153285D01*
X126104666Y-83267571D01*
X126066571Y-83343761D01*
X126028476Y-83381857D01*
X125952285Y-83419952D01*
X125647523Y-83419952D01*
X126371333Y-83000904D02*
X126866571Y-83000904D01*
X126599904Y-83305666D01*
X126714190Y-83305666D01*
X126790380Y-83343761D01*
X126828476Y-83381857D01*
X126866571Y-83458047D01*
X126866571Y-83648523D01*
X126828476Y-83724714D01*
X126790380Y-83762809D01*
X126714190Y-83800904D01*
X126485619Y-83800904D01*
X126409428Y-83762809D01*
X126371333Y-83724714D01*
%TO.C,R4*%
X126485666Y-80117904D02*
X126219000Y-79736952D01*
X126028523Y-80117904D02*
X126028523Y-79317904D01*
X126333285Y-79317904D01*
X126409476Y-79356000D01*
X126447571Y-79394095D01*
X126485666Y-79470285D01*
X126485666Y-79584571D01*
X126447571Y-79660761D01*
X126409476Y-79698857D01*
X126333285Y-79736952D01*
X126028523Y-79736952D01*
X127171380Y-79584571D02*
X127171380Y-80117904D01*
X126980904Y-79279809D02*
X126790428Y-79851238D01*
X127285666Y-79851238D01*
%TO.C,R2*%
X126485666Y-81768904D02*
X126219000Y-81387952D01*
X126028523Y-81768904D02*
X126028523Y-80968904D01*
X126333285Y-80968904D01*
X126409476Y-81007000D01*
X126447571Y-81045095D01*
X126485666Y-81121285D01*
X126485666Y-81235571D01*
X126447571Y-81311761D01*
X126409476Y-81349857D01*
X126333285Y-81387952D01*
X126028523Y-81387952D01*
X126790428Y-81045095D02*
X126828523Y-81007000D01*
X126904714Y-80968904D01*
X127095190Y-80968904D01*
X127171380Y-81007000D01*
X127209476Y-81045095D01*
X127247571Y-81121285D01*
X127247571Y-81197476D01*
X127209476Y-81311761D01*
X126752333Y-81768904D01*
X127247571Y-81768904D01*
%TO.C,C6*%
X102482666Y-83216714D02*
X102444571Y-83254809D01*
X102330285Y-83292904D01*
X102254095Y-83292904D01*
X102139809Y-83254809D01*
X102063619Y-83178619D01*
X102025523Y-83102428D01*
X101987428Y-82950047D01*
X101987428Y-82835761D01*
X102025523Y-82683380D01*
X102063619Y-82607190D01*
X102139809Y-82531000D01*
X102254095Y-82492904D01*
X102330285Y-82492904D01*
X102444571Y-82531000D01*
X102482666Y-82569095D01*
X103168380Y-82492904D02*
X103016000Y-82492904D01*
X102939809Y-82531000D01*
X102901714Y-82569095D01*
X102825523Y-82683380D01*
X102787428Y-82835761D01*
X102787428Y-83140523D01*
X102825523Y-83216714D01*
X102863619Y-83254809D01*
X102939809Y-83292904D01*
X103092190Y-83292904D01*
X103168380Y-83254809D01*
X103206476Y-83216714D01*
X103244571Y-83140523D01*
X103244571Y-82950047D01*
X103206476Y-82873857D01*
X103168380Y-82835761D01*
X103092190Y-82797666D01*
X102939809Y-82797666D01*
X102863619Y-82835761D01*
X102825523Y-82873857D01*
X102787428Y-82950047D01*
%TO.C,C2*%
X131278333Y-87225142D02*
X131230714Y-87272761D01*
X131087857Y-87320380D01*
X130992619Y-87320380D01*
X130849761Y-87272761D01*
X130754523Y-87177523D01*
X130706904Y-87082285D01*
X130659285Y-86891809D01*
X130659285Y-86748952D01*
X130706904Y-86558476D01*
X130754523Y-86463238D01*
X130849761Y-86368000D01*
X130992619Y-86320380D01*
X131087857Y-86320380D01*
X131230714Y-86368000D01*
X131278333Y-86415619D01*
X131659285Y-86415619D02*
X131706904Y-86368000D01*
X131802142Y-86320380D01*
X132040238Y-86320380D01*
X132135476Y-86368000D01*
X132183095Y-86415619D01*
X132230714Y-86510857D01*
X132230714Y-86606095D01*
X132183095Y-86748952D01*
X131611666Y-87320380D01*
X132230714Y-87320380D01*
%TO.C,R1*%
X107689666Y-86213904D02*
X107423000Y-85832952D01*
X107232523Y-86213904D02*
X107232523Y-85413904D01*
X107537285Y-85413904D01*
X107613476Y-85452000D01*
X107651571Y-85490095D01*
X107689666Y-85566285D01*
X107689666Y-85680571D01*
X107651571Y-85756761D01*
X107613476Y-85794857D01*
X107537285Y-85832952D01*
X107232523Y-85832952D01*
X108451571Y-86213904D02*
X107994428Y-86213904D01*
X108223000Y-86213904D02*
X108223000Y-85413904D01*
X108146809Y-85528190D01*
X108070619Y-85604380D01*
X107994428Y-85642476D01*
%TO.C,Q1*%
X123367809Y-85655095D02*
X123291619Y-85617000D01*
X123215428Y-85540809D01*
X123101142Y-85426523D01*
X123024952Y-85388428D01*
X122948761Y-85388428D01*
X122986857Y-85578904D02*
X122910666Y-85540809D01*
X122834476Y-85464619D01*
X122796380Y-85312238D01*
X122796380Y-85045571D01*
X122834476Y-84893190D01*
X122910666Y-84817000D01*
X122986857Y-84778904D01*
X123139238Y-84778904D01*
X123215428Y-84817000D01*
X123291619Y-84893190D01*
X123329714Y-85045571D01*
X123329714Y-85312238D01*
X123291619Y-85464619D01*
X123215428Y-85540809D01*
X123139238Y-85578904D01*
X122986857Y-85578904D01*
X124091619Y-85578904D02*
X123634476Y-85578904D01*
X123863047Y-85578904D02*
X123863047Y-84778904D01*
X123786857Y-84893190D01*
X123710666Y-84969380D01*
X123634476Y-85007476D01*
D10*
%TO.C,SW2*%
X115138333Y-77158809D02*
X115252619Y-77196904D01*
X115443095Y-77196904D01*
X115519285Y-77158809D01*
X115557380Y-77120714D01*
X115595476Y-77044523D01*
X115595476Y-76968333D01*
X115557380Y-76892142D01*
X115519285Y-76854047D01*
X115443095Y-76815952D01*
X115290714Y-76777857D01*
X115214523Y-76739761D01*
X115176428Y-76701666D01*
X115138333Y-76625476D01*
X115138333Y-76549285D01*
X115176428Y-76473095D01*
X115214523Y-76435000D01*
X115290714Y-76396904D01*
X115481190Y-76396904D01*
X115595476Y-76435000D01*
X115862142Y-76396904D02*
X116052619Y-77196904D01*
X116205000Y-76625476D01*
X116357380Y-77196904D01*
X116547857Y-76396904D01*
X116814523Y-76473095D02*
X116852619Y-76435000D01*
X116928809Y-76396904D01*
X117119285Y-76396904D01*
X117195476Y-76435000D01*
X117233571Y-76473095D01*
X117271666Y-76549285D01*
X117271666Y-76625476D01*
X117233571Y-76739761D01*
X116776428Y-77196904D01*
X117271666Y-77196904D01*
D11*
X108807228Y-75531628D02*
X108464371Y-75531628D01*
X108635800Y-75531628D02*
X108635800Y-74931628D01*
X108578657Y-75017342D01*
X108521514Y-75074485D01*
X108464371Y-75103057D01*
D12*
%TO.C,D2*%
X111804523Y-78466904D02*
X111804523Y-77666904D01*
X111995000Y-77666904D01*
X112109285Y-77705000D01*
X112185476Y-77781190D01*
X112223571Y-77857380D01*
X112261666Y-78009761D01*
X112261666Y-78124047D01*
X112223571Y-78276428D01*
X112185476Y-78352619D01*
X112109285Y-78428809D01*
X111995000Y-78466904D01*
X111804523Y-78466904D01*
X112566428Y-77743095D02*
X112604523Y-77705000D01*
X112680714Y-77666904D01*
X112871190Y-77666904D01*
X112947380Y-77705000D01*
X112985476Y-77743095D01*
X113023571Y-77819285D01*
X113023571Y-77895476D01*
X112985476Y-78009761D01*
X112528333Y-78466904D01*
X113023571Y-78466904D01*
D11*
X113978571Y-80363190D02*
X113740476Y-80363190D01*
X113740476Y-79863190D01*
X114145238Y-80101285D02*
X114311904Y-80101285D01*
X114383333Y-80363190D02*
X114145238Y-80363190D01*
X114145238Y-79863190D01*
X114383333Y-79863190D01*
X114597619Y-80363190D02*
X114597619Y-79863190D01*
X114716666Y-79863190D01*
X114788095Y-79887000D01*
X114835714Y-79934619D01*
X114859523Y-79982238D01*
X114883333Y-80077476D01*
X114883333Y-80148904D01*
X114859523Y-80244142D01*
X114835714Y-80291761D01*
X114788095Y-80339380D01*
X114716666Y-80363190D01*
X114597619Y-80363190D01*
D10*
X115717657Y-78528828D02*
X115717657Y-77928828D01*
X116060514Y-78528828D02*
X115803371Y-78185971D01*
X116060514Y-77928828D02*
X115717657Y-78271685D01*
D12*
%TO.C,C7*%
X106927666Y-82200714D02*
X106889571Y-82238809D01*
X106775285Y-82276904D01*
X106699095Y-82276904D01*
X106584809Y-82238809D01*
X106508619Y-82162619D01*
X106470523Y-82086428D01*
X106432428Y-81934047D01*
X106432428Y-81819761D01*
X106470523Y-81667380D01*
X106508619Y-81591190D01*
X106584809Y-81515000D01*
X106699095Y-81476904D01*
X106775285Y-81476904D01*
X106889571Y-81515000D01*
X106927666Y-81553095D01*
X107194333Y-81476904D02*
X107727666Y-81476904D01*
X107384809Y-82276904D01*
%TO.C,C1*%
X107054666Y-80295714D02*
X107016571Y-80333809D01*
X106902285Y-80371904D01*
X106826095Y-80371904D01*
X106711809Y-80333809D01*
X106635619Y-80257619D01*
X106597523Y-80181428D01*
X106559428Y-80029047D01*
X106559428Y-79914761D01*
X106597523Y-79762380D01*
X106635619Y-79686190D01*
X106711809Y-79610000D01*
X106826095Y-79571904D01*
X106902285Y-79571904D01*
X107016571Y-79610000D01*
X107054666Y-79648095D01*
X107816571Y-80371904D02*
X107359428Y-80371904D01*
X107588000Y-80371904D02*
X107588000Y-79571904D01*
X107511809Y-79686190D01*
X107435619Y-79762380D01*
X107359428Y-79800476D01*
%TO.C,R5*%
X107562666Y-88245904D02*
X107296000Y-87864952D01*
X107105523Y-88245904D02*
X107105523Y-87445904D01*
X107410285Y-87445904D01*
X107486476Y-87484000D01*
X107524571Y-87522095D01*
X107562666Y-87598285D01*
X107562666Y-87712571D01*
X107524571Y-87788761D01*
X107486476Y-87826857D01*
X107410285Y-87864952D01*
X107105523Y-87864952D01*
X108286476Y-87445904D02*
X107905523Y-87445904D01*
X107867428Y-87826857D01*
X107905523Y-87788761D01*
X107981714Y-87750666D01*
X108172190Y-87750666D01*
X108248380Y-87788761D01*
X108286476Y-87826857D01*
X108324571Y-87903047D01*
X108324571Y-88093523D01*
X108286476Y-88169714D01*
X108248380Y-88207809D01*
X108172190Y-88245904D01*
X107981714Y-88245904D01*
X107905523Y-88207809D01*
X107867428Y-88169714D01*
%TO.C,D1*%
X117138523Y-78466904D02*
X117138523Y-77666904D01*
X117329000Y-77666904D01*
X117443285Y-77705000D01*
X117519476Y-77781190D01*
X117557571Y-77857380D01*
X117595666Y-78009761D01*
X117595666Y-78124047D01*
X117557571Y-78276428D01*
X117519476Y-78352619D01*
X117443285Y-78428809D01*
X117329000Y-78466904D01*
X117138523Y-78466904D01*
X118357571Y-78466904D02*
X117900428Y-78466904D01*
X118129000Y-78466904D02*
X118129000Y-77666904D01*
X118052809Y-77781190D01*
X117976619Y-77857380D01*
X117900428Y-77895476D01*
D11*
X119312571Y-80363190D02*
X119074476Y-80363190D01*
X119074476Y-79863190D01*
X119479238Y-80101285D02*
X119645904Y-80101285D01*
X119717333Y-80363190D02*
X119479238Y-80363190D01*
X119479238Y-79863190D01*
X119717333Y-79863190D01*
X119931619Y-80363190D02*
X119931619Y-79863190D01*
X120050666Y-79863190D01*
X120122095Y-79887000D01*
X120169714Y-79934619D01*
X120193523Y-79982238D01*
X120217333Y-80077476D01*
X120217333Y-80148904D01*
X120193523Y-80244142D01*
X120169714Y-80291761D01*
X120122095Y-80339380D01*
X120050666Y-80363190D01*
X119931619Y-80363190D01*
D10*
X121051657Y-78528828D02*
X121051657Y-77928828D01*
X121394514Y-78528828D02*
X121137371Y-78185971D01*
X121394514Y-77928828D02*
X121051657Y-78271685D01*
D12*
%TO.C,C3*%
X116960666Y-87534714D02*
X116922571Y-87572809D01*
X116808285Y-87610904D01*
X116732095Y-87610904D01*
X116617809Y-87572809D01*
X116541619Y-87496619D01*
X116503523Y-87420428D01*
X116465428Y-87268047D01*
X116465428Y-87153761D01*
X116503523Y-87001380D01*
X116541619Y-86925190D01*
X116617809Y-86849000D01*
X116732095Y-86810904D01*
X116808285Y-86810904D01*
X116922571Y-86849000D01*
X116960666Y-86887095D01*
X117227333Y-86810904D02*
X117722571Y-86810904D01*
X117455904Y-87115666D01*
X117570190Y-87115666D01*
X117646380Y-87153761D01*
X117684476Y-87191857D01*
X117722571Y-87268047D01*
X117722571Y-87458523D01*
X117684476Y-87534714D01*
X117646380Y-87572809D01*
X117570190Y-87610904D01*
X117341619Y-87610904D01*
X117265428Y-87572809D01*
X117227333Y-87534714D01*
D10*
%TO.C,SW1*%
X116535333Y-75761809D02*
X116649619Y-75799904D01*
X116840095Y-75799904D01*
X116916285Y-75761809D01*
X116954380Y-75723714D01*
X116992476Y-75647523D01*
X116992476Y-75571333D01*
X116954380Y-75495142D01*
X116916285Y-75457047D01*
X116840095Y-75418952D01*
X116687714Y-75380857D01*
X116611523Y-75342761D01*
X116573428Y-75304666D01*
X116535333Y-75228476D01*
X116535333Y-75152285D01*
X116573428Y-75076095D01*
X116611523Y-75038000D01*
X116687714Y-74999904D01*
X116878190Y-74999904D01*
X116992476Y-75038000D01*
X117259142Y-74999904D02*
X117449619Y-75799904D01*
X117602000Y-75228476D01*
X117754380Y-75799904D01*
X117944857Y-74999904D01*
X118668666Y-75799904D02*
X118211523Y-75799904D01*
X118440095Y-75799904D02*
X118440095Y-74999904D01*
X118363904Y-75114190D01*
X118287714Y-75190380D01*
X118211523Y-75228476D01*
D11*
X119221228Y-75531628D02*
X118878371Y-75531628D01*
X119049800Y-75531628D02*
X119049800Y-74931628D01*
X118992657Y-75017342D01*
X118935514Y-75074485D01*
X118878371Y-75103057D01*
D13*
%TO.C,RV1*%
X105684000Y-88983000D02*
X105684000Y-91103000D01*
X111810800Y-88976200D02*
X105684000Y-88983000D01*
X111812781Y-88972166D02*
X111810800Y-90322400D01*
X111531400Y-91103000D02*
X105684000Y-91103000D01*
%TO.C,C5*%
X109862252Y-84276000D02*
X109339748Y-84276000D01*
X109862252Y-82856000D02*
X109339748Y-82856000D01*
%TO.C,J1*%
X112915685Y-91110571D02*
X112915685Y-89020167D01*
X120979000Y-91103000D02*
X120980200Y-89382600D01*
X112903000Y-91121555D02*
X120979000Y-91121555D01*
%TO.C,C4*%
X125833000Y-88859000D02*
X124317000Y-88859000D01*
X129183000Y-89660000D02*
X127913000Y-89660000D01*
X128373000Y-90620000D02*
X127913000Y-90620000D01*
X129097000Y-89820000D02*
X127913000Y-89820000D01*
X128844000Y-90180000D02*
X127913000Y-90180000D01*
X129271000Y-89460000D02*
X127913000Y-89460000D01*
X129364000Y-89179000D02*
X127913000Y-89179000D01*
X128051000Y-90820000D02*
X125695000Y-90820000D01*
X125833000Y-89700000D02*
X124583000Y-89700000D01*
X128616000Y-90420000D02*
X127913000Y-90420000D01*
X129328000Y-89300000D02*
X127913000Y-89300000D01*
X128810000Y-90220000D02*
X127913000Y-90220000D01*
X125833000Y-90780000D02*
X125622000Y-90780000D01*
X125833000Y-89099000D02*
X124362000Y-89099000D01*
X128995000Y-89980000D02*
X127913000Y-89980000D01*
X125833000Y-90340000D02*
X125047000Y-90340000D01*
X125833000Y-89139000D02*
X124372000Y-89139000D01*
X125833000Y-90060000D02*
X124808000Y-90060000D01*
X128520000Y-87249000D02*
X128020000Y-87249000D01*
X125833000Y-89059000D02*
X124353000Y-89059000D01*
X125833000Y-90500000D02*
X125220000Y-90500000D01*
X127157000Y-91100000D02*
X126589000Y-91100000D01*
X125833000Y-89540000D02*
X124508000Y-89540000D01*
X125833000Y-88979000D02*
X124337000Y-88979000D01*
X125833000Y-89380000D02*
X124445000Y-89380000D01*
X125833000Y-89940000D02*
X124724000Y-89940000D01*
X125833000Y-89820000D02*
X124649000Y-89820000D01*
X128737000Y-90300000D02*
X127913000Y-90300000D01*
X125833000Y-89580000D02*
X124525000Y-89580000D01*
X125833000Y-89179000D02*
X124382000Y-89179000D01*
X125833000Y-90660000D02*
X125430000Y-90660000D01*
X129449000Y-88659000D02*
X124297000Y-88659000D01*
X129221000Y-89580000D02*
X127913000Y-89580000D01*
X125833000Y-90140000D02*
X124869000Y-90140000D01*
X129434000Y-88819000D02*
X127913000Y-88819000D01*
X125833000Y-90380000D02*
X125088000Y-90380000D01*
X125833000Y-89340000D02*
X124431000Y-89340000D01*
X125833000Y-89500000D02*
X124491000Y-89500000D01*
X129438000Y-88779000D02*
X127913000Y-88779000D01*
X125833000Y-89260000D02*
X124405000Y-89260000D01*
X129048000Y-89900000D02*
X127913000Y-89900000D01*
X129202000Y-89620000D02*
X127913000Y-89620000D01*
X125833000Y-88819000D02*
X124312000Y-88819000D01*
X125833000Y-89660000D02*
X124563000Y-89660000D01*
X129341000Y-89260000D02*
X127913000Y-89260000D01*
X125833000Y-90020000D02*
X124778000Y-90020000D01*
X125833000Y-90420000D02*
X125130000Y-90420000D01*
X125833000Y-88779000D02*
X124308000Y-88779000D01*
X125833000Y-89420000D02*
X124459000Y-89420000D01*
X129452000Y-88579000D02*
X124294000Y-88579000D01*
X125833000Y-90540000D02*
X125268000Y-90540000D01*
X128938000Y-90060000D02*
X127913000Y-90060000D01*
X125833000Y-90260000D02*
X124972000Y-90260000D01*
X127678000Y-90980000D02*
X126068000Y-90980000D01*
X129141000Y-89740000D02*
X127913000Y-89740000D01*
X129423000Y-88899000D02*
X127913000Y-88899000D01*
X128968000Y-90020000D02*
X127913000Y-90020000D01*
X125833000Y-89780000D02*
X124626000Y-89780000D01*
X125833000Y-89300000D02*
X124418000Y-89300000D01*
X125833000Y-90460000D02*
X125174000Y-90460000D01*
X128658000Y-90380000D02*
X127913000Y-90380000D01*
X125833000Y-90100000D02*
X124838000Y-90100000D01*
X128774000Y-90260000D02*
X127913000Y-90260000D01*
X128478000Y-90540000D02*
X127913000Y-90540000D01*
X129384000Y-89099000D02*
X127913000Y-89099000D01*
X129022000Y-89940000D02*
X127913000Y-89940000D01*
X127971000Y-90860000D02*
X125775000Y-90860000D01*
X125833000Y-90580000D02*
X125319000Y-90580000D01*
X125833000Y-90620000D02*
X125373000Y-90620000D01*
X128427000Y-90580000D02*
X127913000Y-90580000D01*
X128124000Y-90780000D02*
X127913000Y-90780000D01*
X125833000Y-90180000D02*
X124902000Y-90180000D01*
X129315000Y-89340000D02*
X127913000Y-89340000D01*
X125833000Y-89740000D02*
X124605000Y-89740000D01*
X129446000Y-88699000D02*
X124300000Y-88699000D01*
X125833000Y-89900000D02*
X124698000Y-89900000D01*
X128908000Y-90100000D02*
X127913000Y-90100000D01*
X129409000Y-88979000D02*
X127913000Y-88979000D01*
X129287000Y-89420000D02*
X127913000Y-89420000D01*
X125833000Y-90740000D02*
X125554000Y-90740000D01*
X129120000Y-89780000D02*
X127913000Y-89780000D01*
X125833000Y-89860000D02*
X124673000Y-89860000D01*
X128256000Y-90700000D02*
X127913000Y-90700000D01*
X129416000Y-88939000D02*
X127913000Y-88939000D01*
X125833000Y-89220000D02*
X124393000Y-89220000D01*
X128699000Y-90340000D02*
X127913000Y-90340000D01*
X125833000Y-89019000D02*
X124345000Y-89019000D01*
X125833000Y-88939000D02*
X124330000Y-88939000D01*
X125833000Y-88899000D02*
X124323000Y-88899000D01*
X125833000Y-90300000D02*
X125009000Y-90300000D01*
X125833000Y-89460000D02*
X124475000Y-89460000D01*
X129393000Y-89059000D02*
X127913000Y-89059000D01*
X128270000Y-86999000D02*
X128270000Y-87499000D01*
X129073000Y-89860000D02*
X127913000Y-89860000D01*
X128316000Y-90660000D02*
X127913000Y-90660000D01*
X129238000Y-89540000D02*
X127913000Y-89540000D01*
X129353000Y-89220000D02*
X127913000Y-89220000D01*
X129453000Y-88499000D02*
X124293000Y-88499000D01*
X129163000Y-89700000D02*
X127913000Y-89700000D01*
X129255000Y-89500000D02*
X127913000Y-89500000D01*
X127391000Y-91060000D02*
X126355000Y-91060000D01*
X129429000Y-88859000D02*
X127913000Y-88859000D01*
X125833000Y-89980000D02*
X124751000Y-89980000D01*
X129451000Y-88619000D02*
X124295000Y-88619000D01*
X125833000Y-90220000D02*
X124936000Y-90220000D01*
X127884000Y-90900000D02*
X125862000Y-90900000D01*
X125833000Y-89620000D02*
X124544000Y-89620000D01*
X129401000Y-89019000D02*
X127913000Y-89019000D01*
X128572000Y-90460000D02*
X127913000Y-90460000D01*
X129442000Y-88739000D02*
X127913000Y-88739000D01*
X128192000Y-90740000D02*
X127913000Y-90740000D01*
X127550000Y-91020000D02*
X126196000Y-91020000D01*
X128877000Y-90140000D02*
X127913000Y-90140000D01*
X129301000Y-89380000D02*
X127913000Y-89380000D01*
X129453000Y-88539000D02*
X124293000Y-88539000D01*
X125833000Y-90700000D02*
X125490000Y-90700000D01*
X127788000Y-90940000D02*
X125958000Y-90940000D01*
X128526000Y-90500000D02*
X127913000Y-90500000D01*
X125833000Y-88739000D02*
X124304000Y-88739000D01*
X129374000Y-89139000D02*
X127913000Y-89139000D01*
X129493000Y-88499000D02*
G75*
G03*
X129493000Y-88499000I-2620000J0D01*
G01*
%TO.C,Q2*%
X116076000Y-86035000D02*
X114616000Y-86035000D01*
X116076000Y-82875000D02*
X116076000Y-83805000D01*
X116076000Y-86035000D02*
X116076000Y-85105000D01*
X116076000Y-82875000D02*
X112916000Y-82875000D01*
%TO.C,R3*%
X123436748Y-82729000D02*
X123959252Y-82729000D01*
X123436748Y-84149000D02*
X123959252Y-84149000D01*
%TO.C,R4*%
X124340252Y-80085000D02*
X123817748Y-80085000D01*
X124340252Y-78665000D02*
X123817748Y-78665000D01*
%TO.C,R2*%
X123817748Y-82117000D02*
X124340252Y-82117000D01*
X123817748Y-80697000D02*
X124340252Y-80697000D01*
%TO.C,C6*%
X105180000Y-84518000D02*
X106262000Y-84518000D01*
X103335000Y-83518000D02*
X104945000Y-83518000D01*
X101850000Y-84798000D02*
X103100000Y-84798000D01*
X103225000Y-83558000D02*
X105055000Y-83558000D01*
X105180000Y-84958000D02*
X106505000Y-84958000D01*
X102276000Y-84198000D02*
X103100000Y-84198000D01*
X105180000Y-84558000D02*
X106289000Y-84558000D01*
X102045000Y-84478000D02*
X103100000Y-84478000D01*
X101649000Y-85319000D02*
X103100000Y-85319000D01*
X101604000Y-85519000D02*
X103100000Y-85519000D01*
X105180000Y-85479000D02*
X106668000Y-85479000D01*
X102493000Y-87249000D02*
X102993000Y-87249000D01*
X101726000Y-85078000D02*
X103100000Y-85078000D01*
X105180000Y-84638000D02*
X106340000Y-84638000D01*
X101893000Y-84718000D02*
X103100000Y-84718000D01*
X101562000Y-85879000D02*
X106718000Y-85879000D01*
X101940000Y-84638000D02*
X103100000Y-84638000D01*
X101564000Y-85839000D02*
X106716000Y-85839000D01*
X105180000Y-84598000D02*
X106315000Y-84598000D01*
X105180000Y-83878000D02*
X105640000Y-83878000D01*
X105180000Y-84318000D02*
X106111000Y-84318000D01*
X105180000Y-85399000D02*
X106651000Y-85399000D01*
X105180000Y-85038000D02*
X106538000Y-85038000D01*
X101597000Y-85559000D02*
X103100000Y-85559000D01*
X102535000Y-83958000D02*
X103100000Y-83958000D01*
X101965000Y-84598000D02*
X103100000Y-84598000D01*
X105180000Y-84838000D02*
X106450000Y-84838000D01*
X105180000Y-83798000D02*
X105523000Y-83798000D01*
X101830000Y-84838000D02*
X103100000Y-84838000D01*
X105180000Y-85118000D02*
X106568000Y-85118000D01*
X101561000Y-85919000D02*
X106719000Y-85919000D01*
X101672000Y-85238000D02*
X103100000Y-85238000D01*
X101575000Y-85719000D02*
X103100000Y-85719000D01*
X105180000Y-83958000D02*
X105745000Y-83958000D01*
X105180000Y-85679000D02*
X106701000Y-85679000D01*
X102743000Y-87499000D02*
X102743000Y-86999000D01*
X102075000Y-84438000D02*
X103100000Y-84438000D01*
X102697000Y-83838000D02*
X103100000Y-83838000D01*
X101872000Y-84758000D02*
X103100000Y-84758000D01*
X102889000Y-83718000D02*
X103100000Y-83718000D01*
X105180000Y-84758000D02*
X106408000Y-84758000D01*
X101916000Y-84678000D02*
X103100000Y-84678000D01*
X105180000Y-84478000D02*
X106235000Y-84478000D01*
X105180000Y-84438000D02*
X106205000Y-84438000D01*
X102640000Y-83878000D02*
X103100000Y-83878000D01*
X105180000Y-85158000D02*
X106582000Y-85158000D01*
X103463000Y-83478000D02*
X104817000Y-83478000D01*
X105180000Y-84398000D02*
X106175000Y-84398000D01*
X102314000Y-84158000D02*
X103100000Y-84158000D01*
X105180000Y-85639000D02*
X106696000Y-85639000D01*
X101698000Y-85158000D02*
X103100000Y-85158000D01*
X102757000Y-83798000D02*
X103100000Y-83798000D01*
X105180000Y-83758000D02*
X105459000Y-83758000D01*
X105180000Y-84878000D02*
X106469000Y-84878000D01*
X105180000Y-84158000D02*
X105966000Y-84158000D01*
X102397000Y-84078000D02*
X103100000Y-84078000D01*
X105180000Y-85359000D02*
X106641000Y-85359000D01*
X105180000Y-85319000D02*
X106631000Y-85319000D01*
X105180000Y-85599000D02*
X106690000Y-85599000D01*
X105180000Y-85719000D02*
X106705000Y-85719000D01*
X105180000Y-85238000D02*
X106608000Y-85238000D01*
X102821000Y-83758000D02*
X103100000Y-83758000D01*
X105180000Y-85519000D02*
X106676000Y-85519000D01*
X105180000Y-84798000D02*
X106430000Y-84798000D01*
X105180000Y-84678000D02*
X106364000Y-84678000D01*
X102962000Y-83678000D02*
X105318000Y-83678000D01*
X101758000Y-84998000D02*
X103100000Y-84998000D01*
X105180000Y-84998000D02*
X106522000Y-84998000D01*
X105180000Y-85559000D02*
X106683000Y-85559000D01*
X101560000Y-85999000D02*
X106720000Y-85999000D01*
X105180000Y-85278000D02*
X106620000Y-85278000D01*
X105180000Y-84038000D02*
X105839000Y-84038000D01*
X102136000Y-84358000D02*
X103100000Y-84358000D01*
X105180000Y-84918000D02*
X106488000Y-84918000D01*
X101579000Y-85679000D02*
X103100000Y-85679000D01*
X102355000Y-84118000D02*
X103100000Y-84118000D01*
X101629000Y-85399000D02*
X103100000Y-85399000D01*
X101567000Y-85799000D02*
X106713000Y-85799000D01*
X101660000Y-85278000D02*
X103100000Y-85278000D01*
X105180000Y-85759000D02*
X106709000Y-85759000D01*
X103129000Y-83598000D02*
X105151000Y-83598000D01*
X102169000Y-84318000D02*
X103100000Y-84318000D01*
X103856000Y-83398000D02*
X104424000Y-83398000D01*
X101571000Y-85759000D02*
X103100000Y-85759000D01*
X102105000Y-84398000D02*
X103100000Y-84398000D01*
X101584000Y-85639000D02*
X103100000Y-85639000D01*
X101742000Y-85038000D02*
X103100000Y-85038000D01*
X101712000Y-85118000D02*
X103100000Y-85118000D01*
X105180000Y-84118000D02*
X105925000Y-84118000D01*
X101792000Y-84918000D02*
X103100000Y-84918000D01*
X101811000Y-84878000D02*
X103100000Y-84878000D01*
X102018000Y-84518000D02*
X103100000Y-84518000D01*
X101991000Y-84558000D02*
X103100000Y-84558000D01*
X105180000Y-83998000D02*
X105793000Y-83998000D01*
X105180000Y-83918000D02*
X105694000Y-83918000D01*
X105180000Y-85439000D02*
X106660000Y-85439000D01*
X102586000Y-83918000D02*
X103100000Y-83918000D01*
X105180000Y-83718000D02*
X105391000Y-83718000D01*
X105180000Y-84238000D02*
X106041000Y-84238000D01*
X102203000Y-84278000D02*
X103100000Y-84278000D01*
X105180000Y-84078000D02*
X105883000Y-84078000D01*
X101685000Y-85198000D02*
X103100000Y-85198000D01*
X103042000Y-83638000D02*
X105238000Y-83638000D01*
X105180000Y-83838000D02*
X105583000Y-83838000D01*
X101639000Y-85359000D02*
X103100000Y-85359000D01*
X105180000Y-85078000D02*
X106554000Y-85078000D01*
X102239000Y-84238000D02*
X103100000Y-84238000D01*
X102441000Y-84038000D02*
X103100000Y-84038000D01*
X105180000Y-84278000D02*
X106077000Y-84278000D01*
X105180000Y-84358000D02*
X106144000Y-84358000D01*
X102487000Y-83998000D02*
X103100000Y-83998000D01*
X105180000Y-84718000D02*
X106387000Y-84718000D01*
X105180000Y-85198000D02*
X106595000Y-85198000D01*
X101590000Y-85599000D02*
X103100000Y-85599000D01*
X101620000Y-85439000D02*
X103100000Y-85439000D01*
X101775000Y-84958000D02*
X103100000Y-84958000D01*
X101560000Y-85959000D02*
X106720000Y-85959000D01*
X105180000Y-84198000D02*
X106004000Y-84198000D01*
X101612000Y-85479000D02*
X103100000Y-85479000D01*
X103622000Y-83438000D02*
X104658000Y-83438000D01*
X106760000Y-85999000D02*
G75*
G03*
X106760000Y-85999000I-2620000J0D01*
G01*
%TO.C,C2*%
X130834000Y-83266000D02*
X132355000Y-83266000D01*
X128543000Y-81305000D02*
X128754000Y-81305000D01*
X128475000Y-81345000D02*
X128754000Y-81345000D01*
X130834000Y-82865000D02*
X132274000Y-82865000D01*
X127214000Y-83546000D02*
X132374000Y-83546000D01*
X130834000Y-82465000D02*
X132123000Y-82465000D01*
X127396000Y-82625000D02*
X128754000Y-82625000D01*
X130834000Y-81985000D02*
X131829000Y-81985000D01*
X130834000Y-82385000D02*
X132084000Y-82385000D01*
X130834000Y-82705000D02*
X132222000Y-82705000D01*
X127672000Y-82105000D02*
X128754000Y-82105000D01*
X130834000Y-82185000D02*
X131969000Y-82185000D01*
X130834000Y-83026000D02*
X132314000Y-83026000D01*
X127790000Y-81945000D02*
X128754000Y-81945000D01*
X130834000Y-82425000D02*
X132104000Y-82425000D01*
X128351000Y-81425000D02*
X128754000Y-81425000D01*
X130834000Y-82145000D02*
X131943000Y-82145000D01*
X127699000Y-82065000D02*
X128754000Y-82065000D01*
X127729000Y-82025000D02*
X128754000Y-82025000D01*
X128397000Y-85086000D02*
X128397000Y-84586000D01*
X130834000Y-83186000D02*
X132344000Y-83186000D01*
X130834000Y-81825000D02*
X131695000Y-81825000D01*
X127233000Y-83266000D02*
X128754000Y-83266000D01*
X127214000Y-83586000D02*
X132374000Y-83586000D01*
X128696000Y-81225000D02*
X130892000Y-81225000D01*
X127412000Y-82585000D02*
X128754000Y-82585000D01*
X130834000Y-82065000D02*
X131889000Y-82065000D01*
X130834000Y-82225000D02*
X131994000Y-82225000D01*
X127446000Y-82505000D02*
X128754000Y-82505000D01*
X129117000Y-81065000D02*
X130471000Y-81065000D01*
X130834000Y-82505000D02*
X132142000Y-82505000D01*
X130834000Y-82785000D02*
X132249000Y-82785000D01*
X127930000Y-81785000D02*
X128754000Y-81785000D01*
X128189000Y-81545000D02*
X128754000Y-81545000D01*
X127221000Y-83386000D02*
X132367000Y-83386000D01*
X130834000Y-81625000D02*
X131493000Y-81625000D01*
X127229000Y-83306000D02*
X128754000Y-83306000D01*
X127594000Y-82225000D02*
X128754000Y-82225000D01*
X127759000Y-81985000D02*
X128754000Y-81985000D01*
X127352000Y-82745000D02*
X128754000Y-82745000D01*
X130834000Y-83066000D02*
X132322000Y-83066000D01*
X130834000Y-82105000D02*
X131916000Y-82105000D01*
X130834000Y-83226000D02*
X132350000Y-83226000D01*
X127619000Y-82185000D02*
X128754000Y-82185000D01*
X128294000Y-81465000D02*
X128754000Y-81465000D01*
X130834000Y-83346000D02*
X132363000Y-83346000D01*
X130834000Y-81785000D02*
X131658000Y-81785000D01*
X127225000Y-83346000D02*
X128754000Y-83346000D01*
X127547000Y-82305000D02*
X128754000Y-82305000D01*
X127244000Y-83186000D02*
X128754000Y-83186000D01*
X127274000Y-83026000D02*
X128754000Y-83026000D01*
X130834000Y-82825000D02*
X132262000Y-82825000D01*
X130834000Y-81905000D02*
X131765000Y-81905000D01*
X130834000Y-82946000D02*
X132295000Y-82946000D01*
X130834000Y-81945000D02*
X131798000Y-81945000D01*
X130834000Y-82745000D02*
X132236000Y-82745000D01*
X130834000Y-82025000D02*
X131859000Y-82025000D01*
X127429000Y-82545000D02*
X128754000Y-82545000D01*
X127314000Y-82865000D02*
X128754000Y-82865000D01*
X130834000Y-81865000D02*
X131731000Y-81865000D01*
X127484000Y-82425000D02*
X128754000Y-82425000D01*
X128051000Y-81665000D02*
X128754000Y-81665000D01*
X130834000Y-82665000D02*
X132208000Y-82665000D01*
X130834000Y-81425000D02*
X131237000Y-81425000D01*
X130834000Y-81465000D02*
X131294000Y-81465000D01*
X127251000Y-83146000D02*
X128754000Y-83146000D01*
X130834000Y-82986000D02*
X132305000Y-82986000D01*
X127238000Y-83226000D02*
X128754000Y-83226000D01*
X127893000Y-81825000D02*
X128754000Y-81825000D01*
X130834000Y-81305000D02*
X131045000Y-81305000D01*
X130834000Y-82625000D02*
X132192000Y-82625000D01*
X127366000Y-82705000D02*
X128754000Y-82705000D01*
X127645000Y-82145000D02*
X128754000Y-82145000D01*
X130834000Y-81345000D02*
X131113000Y-81345000D01*
X127823000Y-81905000D02*
X128754000Y-81905000D01*
X127380000Y-82665000D02*
X128754000Y-82665000D01*
X130834000Y-83146000D02*
X132337000Y-83146000D01*
X127968000Y-81745000D02*
X128754000Y-81745000D01*
X127283000Y-82986000D02*
X128754000Y-82986000D01*
X128616000Y-81265000D02*
X130972000Y-81265000D01*
X127258000Y-83106000D02*
X128754000Y-83106000D01*
X130834000Y-81665000D02*
X131537000Y-81665000D01*
X127339000Y-82785000D02*
X128754000Y-82785000D01*
X130834000Y-81505000D02*
X131348000Y-81505000D01*
X130834000Y-81545000D02*
X131399000Y-81545000D01*
X127326000Y-82825000D02*
X128754000Y-82825000D01*
X130834000Y-82265000D02*
X132018000Y-82265000D01*
X130834000Y-82545000D02*
X132159000Y-82545000D01*
X127504000Y-82385000D02*
X128754000Y-82385000D01*
X129276000Y-81025000D02*
X130312000Y-81025000D01*
X127266000Y-83066000D02*
X128754000Y-83066000D01*
X128009000Y-81705000D02*
X128754000Y-81705000D01*
X130834000Y-81705000D02*
X131579000Y-81705000D01*
X128147000Y-84836000D02*
X128647000Y-84836000D01*
X128411000Y-81385000D02*
X128754000Y-81385000D01*
X130834000Y-82345000D02*
X132062000Y-82345000D01*
X130834000Y-81585000D02*
X131447000Y-81585000D01*
X130834000Y-83106000D02*
X132330000Y-83106000D01*
X130834000Y-83306000D02*
X132359000Y-83306000D01*
X128989000Y-81105000D02*
X130599000Y-81105000D01*
X128095000Y-81625000D02*
X128754000Y-81625000D01*
X130834000Y-82585000D02*
X132176000Y-82585000D01*
X127293000Y-82946000D02*
X128754000Y-82946000D01*
X128783000Y-81185000D02*
X130805000Y-81185000D01*
X128141000Y-81585000D02*
X128754000Y-81585000D01*
X127857000Y-81865000D02*
X128754000Y-81865000D01*
X130834000Y-82906000D02*
X132285000Y-82906000D01*
X127526000Y-82345000D02*
X128754000Y-82345000D01*
X127218000Y-83426000D02*
X132370000Y-83426000D01*
X129510000Y-80985000D02*
X130078000Y-80985000D01*
X128879000Y-81145000D02*
X130709000Y-81145000D01*
X130834000Y-82305000D02*
X132041000Y-82305000D01*
X127465000Y-82465000D02*
X128754000Y-82465000D01*
X127215000Y-83506000D02*
X132373000Y-83506000D01*
X130834000Y-81745000D02*
X131620000Y-81745000D01*
X127570000Y-82265000D02*
X128754000Y-82265000D01*
X128240000Y-81505000D02*
X128754000Y-81505000D01*
X127216000Y-83466000D02*
X132372000Y-83466000D01*
X130834000Y-81385000D02*
X131177000Y-81385000D01*
X127303000Y-82906000D02*
X128754000Y-82906000D01*
X132414000Y-83586000D02*
G75*
G03*
X132414000Y-83586000I-2620000J0D01*
G01*
%TO.C,R1*%
X110497252Y-84761000D02*
X109974748Y-84761000D01*
X110497252Y-86181000D02*
X109974748Y-86181000D01*
%TO.C,Q1*%
X122172000Y-87940000D02*
X122172000Y-87010000D01*
X122172000Y-87940000D02*
X120712000Y-87940000D01*
X122172000Y-84780000D02*
X122172000Y-85710000D01*
X122172000Y-84780000D02*
X119012000Y-84780000D01*
%TO.C,SW2*%
X108659219Y-77143834D02*
X108661200Y-75793600D01*
X108661200Y-77139800D02*
X114788000Y-77133000D01*
X108940600Y-75013000D02*
X114788000Y-75013000D01*
X114788000Y-77133000D02*
X114788000Y-75013000D01*
%TO.C,D2*%
X113182400Y-78867000D02*
X112826800Y-78867000D01*
X115824000Y-78816200D02*
X115380000Y-78816200D01*
X112826800Y-78867000D02*
G75*
G03*
X113221393Y-81809334I1451979J-1302903D01*
G01*
X113220000Y-79096039D02*
G75*
G03*
X113220163Y-81178130I1080000J-1040961D01*
G01*
X115378608Y-81809334D02*
G75*
G03*
X115874800Y-78867000I-1094940J1697655D01*
G01*
X115379837Y-81178130D02*
G75*
G03*
X115380000Y-79096039I-1079837J1041130D01*
G01*
%TO.C,C7*%
X109862252Y-80824000D02*
X109339748Y-80824000D01*
X109862252Y-82244000D02*
X109339748Y-82244000D01*
%TO.C,C1*%
X109339748Y-78792000D02*
X109862252Y-78792000D01*
X109339748Y-80212000D02*
X109862252Y-80212000D01*
%TO.C,R5*%
X110497252Y-88213000D02*
X109974748Y-88213000D01*
X110497252Y-86793000D02*
X109974748Y-86793000D01*
%TO.C,D1*%
X118516400Y-78867000D02*
X118160800Y-78867000D01*
X121158000Y-78816200D02*
X120714000Y-78816200D01*
X120712608Y-81809334D02*
G75*
G03*
X121208800Y-78867000I-1094940J1697655D01*
G01*
X120713837Y-81178130D02*
G75*
G03*
X120714000Y-79096039I-1079837J1041130D01*
G01*
X118554000Y-79096039D02*
G75*
G03*
X118554163Y-81178130I1080000J-1040961D01*
G01*
X118160800Y-78867000D02*
G75*
G03*
X118555393Y-81809334I1451979J-1302903D01*
G01*
%TO.C,C3*%
X114815252Y-87959000D02*
X114292748Y-87959000D01*
X114815252Y-86539000D02*
X114292748Y-86539000D01*
%TO.C,SW1*%
X119354600Y-75013000D02*
X125202000Y-75013000D01*
X125202000Y-77133000D02*
X125202000Y-75013000D01*
X119073219Y-77143834D02*
X119075200Y-75793600D01*
X119075200Y-77139800D02*
X125202000Y-77133000D01*
%TD*%
%LPC*%
D14*
%TO.C,RV1*%
X110744000Y-90043000D03*
D15*
X108744000Y-90043000D03*
X106744000Y-90043000D03*
%TD*%
D16*
%TO.C,C5*%
X110626000Y-83566000D03*
X108576000Y-83566000D03*
%TD*%
D14*
%TO.C,J1*%
X113919000Y-90043000D03*
D15*
X115919000Y-90043000D03*
X117919000Y-90043000D03*
X119919000Y-90043000D03*
%TD*%
D17*
%TO.C,C4*%
X126873000Y-87249000D03*
D18*
X126873000Y-89749000D03*
%TD*%
D19*
%TO.C,Q2*%
X113816000Y-83505000D03*
X113816000Y-85405000D03*
X116816000Y-84455000D03*
%TD*%
D20*
%TO.C,R3*%
X122673000Y-83439000D03*
X124723000Y-83439000D03*
%TD*%
D16*
%TO.C,R4*%
X125104000Y-79375000D03*
X123054000Y-79375000D03*
%TD*%
D20*
%TO.C,R2*%
X123054000Y-81407000D03*
X125104000Y-81407000D03*
%TD*%
D17*
%TO.C,C6*%
X104140000Y-87249000D03*
D18*
X104140000Y-84749000D03*
%TD*%
D17*
%TO.C,C2*%
X129794000Y-84836000D03*
D18*
X129794000Y-82336000D03*
%TD*%
D16*
%TO.C,R1*%
X111261000Y-85471000D03*
X109211000Y-85471000D03*
%TD*%
D19*
%TO.C,Q1*%
X119912000Y-85410000D03*
X119912000Y-87310000D03*
X122912000Y-86360000D03*
%TD*%
D14*
%TO.C,SW2*%
X109728000Y-76073000D03*
D15*
X111728000Y-76073000D03*
X113728000Y-76073000D03*
%TD*%
D21*
%TO.C,D2*%
X114300000Y-78867000D03*
D22*
X114300000Y-81407000D03*
%TD*%
D16*
%TO.C,C7*%
X110626000Y-81534000D03*
X108576000Y-81534000D03*
%TD*%
D20*
%TO.C,C1*%
X108576000Y-79502000D03*
X110626000Y-79502000D03*
%TD*%
D16*
%TO.C,R5*%
X111261000Y-87503000D03*
X109211000Y-87503000D03*
%TD*%
D21*
%TO.C,D1*%
X119634000Y-78867000D03*
D22*
X119634000Y-81407000D03*
%TD*%
D16*
%TO.C,C3*%
X115579000Y-87249000D03*
X113529000Y-87249000D03*
%TD*%
D14*
%TO.C,SW1*%
X120142000Y-76073000D03*
D15*
X122142000Y-76073000D03*
X124142000Y-76073000D03*
%TD*%
M02*
