M48
; DRILL file {KiCad 6.0.0+dfsg1-2} date ti 11. tammikuuta 2022 20.59.31
; FORMAT={-:-/ absolute / inch / decimal}
; #@! TF.CreationDate,2022-01-11T20:59:31+02:00
; #@! TF.GenerationSoftware,Kicad,Pcbnew,6.0.0+dfsg1-2
; #@! TF.FileFunction,Plated,1,2,PTH
FMAT,2
INCH
; #@! TA.AperFunction,Plated,PTH,ViaDrill
T1C0.0157
; #@! TA.AperFunction,Plated,PTH,ComponentDrill
T2C0.0315
; #@! TA.AperFunction,Plated,PTH,ComponentDrill
T3C0.0354
%
G90
G05
T1
X4.425Y-3.545
X4.59Y-3.255
X4.685Y-3.3
X4.98Y-3.345
T2
X4.1Y-3.3366
X4.1Y-3.435
X4.2025Y-3.545
X4.2813Y-3.545
X4.32Y-2.995
X4.36Y-3.545
X4.3987Y-2.995
X4.4775Y-2.995
X4.485Y-3.545
X4.5637Y-3.545
X4.6425Y-3.545
X4.7212Y-3.545
X4.73Y-2.995
X4.8087Y-2.995
X4.8875Y-2.995
X4.995Y-3.435
X4.995Y-3.5334
X5.11Y-3.2416
X5.11Y-3.34
T3
X4.5Y-3.105
X4.5Y-3.205
X4.71Y-3.105
X4.71Y-3.205
T0
M30
