%TF.GenerationSoftware,KiCad,Pcbnew,6.0.0+dfsg1-2*%
%TF.CreationDate,2022-01-11T20:59:38+02:00*%
%TF.ProjectId,aceitera,61636569-7465-4726-912e-6b696361645f,rev?*%
%TF.SameCoordinates,Original*%
%TF.FileFunction,Soldermask,Top*%
%TF.FilePolarity,Negative*%
%FSLAX46Y46*%
G04 Gerber Fmt 4.6, Leading zero omitted, Abs format (unit mm)*
G04 Created by KiCad (PCBNEW 6.0.0+dfsg1-2) date 2022-01-11 20:59:38*
%MOMM*%
%LPD*%
G01*
G04 APERTURE LIST*
G04 Aperture macros list*
%AMRoundRect*
0 Rectangle with rounded corners*
0 $1 Rounding radius*
0 $2 $3 $4 $5 $6 $7 $8 $9 X,Y pos of 4 corners*
0 Add a 4 corners polygon primitive as box body*
4,1,4,$2,$3,$4,$5,$6,$7,$8,$9,$2,$3,0*
0 Add four circle primitives for the rounded corners*
1,1,$1+$1,$2,$3*
1,1,$1+$1,$4,$5*
1,1,$1+$1,$6,$7*
1,1,$1+$1,$8,$9*
0 Add four rect primitives between the rounded corners*
20,1,$1+$1,$2,$3,$4,$5,0*
20,1,$1+$1,$4,$5,$6,$7,0*
20,1,$1+$1,$6,$7,$8,$9,0*
20,1,$1+$1,$8,$9,$2,$3,0*%
G04 Aperture macros list end*
%ADD10R,1.350000X1.350000*%
%ADD11O,1.350000X1.350000*%
%ADD12RoundRect,0.250000X0.325000X0.450000X-0.325000X0.450000X-0.325000X-0.450000X0.325000X-0.450000X0*%
%ADD13R,1.600000X1.600000*%
%ADD14C,1.600000*%
%ADD15R,1.900000X0.800000*%
%ADD16RoundRect,0.250000X-0.325000X-0.450000X0.325000X-0.450000X0.325000X0.450000X-0.325000X0.450000X0*%
%ADD17R,1.800000X1.800000*%
%ADD18C,1.800000*%
G04 APERTURE END LIST*
D10*
%TO.C,RV1*%
X110744000Y-90043000D03*
D11*
X108744000Y-90043000D03*
X106744000Y-90043000D03*
%TD*%
D12*
%TO.C,C5*%
X110626000Y-83566000D03*
X108576000Y-83566000D03*
%TD*%
D10*
%TO.C,J1*%
X113919000Y-90043000D03*
D11*
X115919000Y-90043000D03*
X117919000Y-90043000D03*
X119919000Y-90043000D03*
%TD*%
D13*
%TO.C,C4*%
X126873000Y-87249000D03*
D14*
X126873000Y-89749000D03*
%TD*%
D15*
%TO.C,Q2*%
X113816000Y-83505000D03*
X113816000Y-85405000D03*
X116816000Y-84455000D03*
%TD*%
D16*
%TO.C,R3*%
X122673000Y-83439000D03*
X124723000Y-83439000D03*
%TD*%
D12*
%TO.C,R4*%
X125104000Y-79375000D03*
X123054000Y-79375000D03*
%TD*%
D16*
%TO.C,R2*%
X123054000Y-81407000D03*
X125104000Y-81407000D03*
%TD*%
D13*
%TO.C,C6*%
X104140000Y-87249000D03*
D14*
X104140000Y-84749000D03*
%TD*%
D13*
%TO.C,C2*%
X129794000Y-84836000D03*
D14*
X129794000Y-82336000D03*
%TD*%
D12*
%TO.C,R1*%
X111261000Y-85471000D03*
X109211000Y-85471000D03*
%TD*%
D15*
%TO.C,Q1*%
X119912000Y-85410000D03*
X119912000Y-87310000D03*
X122912000Y-86360000D03*
%TD*%
D10*
%TO.C,SW2*%
X109728000Y-76073000D03*
D11*
X111728000Y-76073000D03*
X113728000Y-76073000D03*
%TD*%
D17*
%TO.C,D2*%
X114300000Y-78867000D03*
D18*
X114300000Y-81407000D03*
%TD*%
D12*
%TO.C,C7*%
X110626000Y-81534000D03*
X108576000Y-81534000D03*
%TD*%
D16*
%TO.C,C1*%
X108576000Y-79502000D03*
X110626000Y-79502000D03*
%TD*%
D12*
%TO.C,R5*%
X111261000Y-87503000D03*
X109211000Y-87503000D03*
%TD*%
D17*
%TO.C,D1*%
X119634000Y-78867000D03*
D18*
X119634000Y-81407000D03*
%TD*%
D12*
%TO.C,C3*%
X115579000Y-87249000D03*
X113529000Y-87249000D03*
%TD*%
D10*
%TO.C,SW1*%
X120142000Y-76073000D03*
D11*
X122142000Y-76073000D03*
X124142000Y-76073000D03*
%TD*%
M02*
