%TF.GenerationSoftware,KiCad,Pcbnew,(5.99.0-2965-g3673c2369)*%
%TF.CreationDate,2020-08-27T12:58:16+03:00*%
%TF.ProjectId,aceitera,61636569-7465-4726-912e-6b696361645f,rev?*%
%TF.SameCoordinates,Original*%
%TF.FileFunction,Copper,L2,Bot*%
%TF.FilePolarity,Positive*%
%FSLAX46Y46*%
G04 Gerber Fmt 4.6, Leading zero omitted, Abs format (unit mm)*
G04 Created by KiCad (PCBNEW (5.99.0-2965-g3673c2369)) date 2020-08-27 12:58:16*
%MOMM*%
%LPD*%
G01*
G04 APERTURE LIST*
%TA.AperFunction,ComponentPad*%
%ADD10O,1.350000X1.350000*%
%TD*%
%TA.AperFunction,ComponentPad*%
%ADD11R,1.350000X1.350000*%
%TD*%
%TA.AperFunction,ComponentPad*%
%ADD12C,1.600000*%
%TD*%
%TA.AperFunction,ComponentPad*%
%ADD13R,1.600000X1.600000*%
%TD*%
%TA.AperFunction,ComponentPad*%
%ADD14C,1.800000*%
%TD*%
%TA.AperFunction,ComponentPad*%
%ADD15R,1.800000X1.800000*%
%TD*%
%TA.AperFunction,ViaPad*%
%ADD16C,0.800000*%
%TD*%
%TA.AperFunction,Conductor*%
%ADD17C,0.381000*%
%TD*%
G04 APERTURE END LIST*
D10*
%TO.P,SW2,3,C*%
%TO.N,Net-(C7-Pad1)*%
X113728000Y-76073000D03*
%TO.P,SW2,2,B*%
%TO.N,IN*%
X111728000Y-76073000D03*
D11*
%TO.P,SW2,1,A*%
%TO.N,Net-(C1-Pad1)*%
X109728000Y-76073000D03*
%TD*%
D10*
%TO.P,SW1,3,3*%
%TO.N,Net-(D1-Pad1)*%
X124142000Y-76073000D03*
%TO.P,SW1,2,2*%
%TO.N,+9V*%
X122142000Y-76073000D03*
D11*
%TO.P,SW1,1,1*%
%TO.N,VCC*%
X120142000Y-76073000D03*
%TD*%
D10*
%TO.P,RV1,3,3*%
%TO.N,GND*%
X106744000Y-90043000D03*
%TO.P,RV1,2,2*%
%TO.N,OUT*%
X108744000Y-90043000D03*
D11*
%TO.P,RV1,1,1*%
%TO.N,Net-(C3-Pad2)*%
X110744000Y-90043000D03*
%TD*%
D10*
%TO.P,J1,4,Pin_4*%
%TO.N,OUT*%
X119919000Y-90043000D03*
%TO.P,J1,3,Pin_3*%
%TO.N,GND*%
X117919000Y-90043000D03*
%TO.P,J1,2,Pin_2*%
%TO.N,+9V*%
X115919000Y-90043000D03*
D11*
%TO.P,J1,1,Pin_1*%
%TO.N,IN*%
X113919000Y-90043000D03*
%TD*%
D12*
%TO.P,C4,2*%
%TO.N,GND*%
X126873000Y-89749000D03*
D13*
%TO.P,C4,1*%
%TO.N,Net-(C4-Pad1)*%
X126873000Y-87249000D03*
%TD*%
D12*
%TO.P,C6,2*%
%TO.N,GND*%
X104140000Y-84749000D03*
D13*
%TO.P,C6,1*%
%TO.N,Net-(C6-Pad1)*%
X104140000Y-87249000D03*
%TD*%
D12*
%TO.P,C2,2*%
%TO.N,Net-(C2-Pad2)*%
X129794000Y-82336000D03*
D13*
%TO.P,C2,1*%
%TO.N,Net-(C2-Pad1)*%
X129794000Y-84836000D03*
%TD*%
D14*
%TO.P,D2,2,A*%
%TO.N,Net-(D1-Pad1)*%
X114300000Y-81407000D03*
D15*
%TO.P,D2,1,K*%
%TO.N,VCC*%
X114300000Y-78867000D03*
%TD*%
D14*
%TO.P,D1,2,A*%
%TO.N,+9V*%
X119634000Y-81407000D03*
D15*
%TO.P,D1,1,K*%
%TO.N,Net-(D1-Pad1)*%
X119634000Y-78867000D03*
%TD*%
D16*
%TO.N,GND*%
X126492000Y-84963000D03*
X112395000Y-90043000D03*
X118999000Y-83820000D03*
X116586000Y-82677000D03*
%TD*%
D17*
%TO.N,+9V*%
X122269000Y-78899000D02*
X122269000Y-76073000D01*
X115919000Y-85249000D02*
X119634000Y-81534000D01*
X119634000Y-81534000D02*
X122269000Y-78899000D01*
X115919000Y-90043000D02*
X115919000Y-85249000D01*
%TO.N,IN*%
X112014000Y-76200000D02*
X112014000Y-83058000D01*
X112014000Y-84201000D02*
X112014000Y-83058000D01*
X112331500Y-84518500D02*
X112014000Y-84201000D01*
X113919000Y-90043000D02*
X113919000Y-86106000D01*
X113919000Y-86106000D02*
X112331500Y-84518500D01*
%TD*%
%TA.AperFunction,Conductor*%
%TO.N,GND*%
G36*
X125367658Y-76582721D02*
G01*
X125421810Y-76655132D01*
X125520597Y-77005095D01*
X125522173Y-77008649D01*
X125530450Y-77034565D01*
X125531223Y-77038359D01*
X125531224Y-77038363D01*
X125533376Y-77044271D01*
X125703255Y-77501962D01*
X125705106Y-77505369D01*
X125715438Y-77530547D01*
X125716513Y-77534269D01*
X125719103Y-77539921D01*
X125719153Y-77540030D01*
X125925173Y-77982583D01*
X125927289Y-77985827D01*
X125939610Y-78010100D01*
X125940981Y-78013726D01*
X125944012Y-78019145D01*
X125944076Y-78019259D01*
X126184920Y-78443853D01*
X126187287Y-78446914D01*
X126201521Y-78470131D01*
X126203175Y-78473628D01*
X126203177Y-78473632D01*
X126206610Y-78478759D01*
X126480825Y-78882813D01*
X126483440Y-78885686D01*
X126499474Y-78907665D01*
X126501410Y-78911030D01*
X126505246Y-78915868D01*
X126810975Y-79296616D01*
X126810990Y-79296633D01*
X126813821Y-79299281D01*
X126831565Y-79319901D01*
X126833764Y-79323098D01*
X126837838Y-79327467D01*
X126838105Y-79327751D01*
X127173260Y-79682623D01*
X127173268Y-79682630D01*
X127176294Y-79685036D01*
X127195647Y-79704178D01*
X127198092Y-79707186D01*
X127202862Y-79711538D01*
X127202875Y-79711550D01*
X127565325Y-80038322D01*
X127568544Y-80040484D01*
X127589372Y-80058014D01*
X127592053Y-80060819D01*
X127592061Y-80060825D01*
X127596881Y-80064562D01*
X127596881Y-80064563D01*
X127596882Y-80064562D01*
X127597102Y-80064731D01*
X127984665Y-80361441D01*
X127984668Y-80361442D01*
X127988041Y-80363334D01*
X128010210Y-80379139D01*
X128013103Y-80381716D01*
X128018208Y-80385054D01*
X128018425Y-80385195D01*
X128428564Y-80649884D01*
X128432080Y-80651500D01*
X128455431Y-80665468D01*
X128458529Y-80667810D01*
X128458531Y-80667811D01*
X128464033Y-80670807D01*
X128464183Y-80670888D01*
X128894159Y-80901795D01*
X128894169Y-80901800D01*
X128897801Y-80903128D01*
X128922197Y-80915177D01*
X128925474Y-80917264D01*
X128931261Y-80919837D01*
X128931277Y-80919844D01*
X129100879Y-80994071D01*
X129155265Y-81039707D01*
X129176345Y-81107502D01*
X129157426Y-81175931D01*
X129113361Y-81218619D01*
X129040899Y-81260455D01*
X129040896Y-81260457D01*
X128865572Y-81407572D01*
X128718457Y-81582896D01*
X128718455Y-81582899D01*
X128604024Y-81781099D01*
X128604020Y-81781108D01*
X128525745Y-81996167D01*
X128486000Y-82221567D01*
X128486000Y-82450433D01*
X128525745Y-82675833D01*
X128604020Y-82890892D01*
X128604024Y-82890901D01*
X128718455Y-83089101D01*
X128718457Y-83089104D01*
X128865572Y-83264427D01*
X128942246Y-83328765D01*
X128981573Y-83387875D01*
X128982699Y-83458863D01*
X128945268Y-83519190D01*
X128893866Y-83546994D01*
X128736081Y-83589273D01*
X128598846Y-83704426D01*
X128509271Y-83859574D01*
X128478163Y-84036001D01*
X128478163Y-85635998D01*
X128547273Y-85893920D01*
X128662426Y-86031154D01*
X128817574Y-86120729D01*
X128994001Y-86151837D01*
X130593998Y-86151837D01*
X130851920Y-86082727D01*
X130989154Y-85967574D01*
X131078729Y-85812426D01*
X131078728Y-85812426D01*
X131109837Y-85635999D01*
X131109837Y-84036002D01*
X131040727Y-83778081D01*
X130925574Y-83640846D01*
X130770427Y-83551272D01*
X130714380Y-83541389D01*
X130650768Y-83509861D01*
X130614298Y-83448947D01*
X130616551Y-83377986D01*
X130655269Y-83320781D01*
X130722428Y-83264427D01*
X130869543Y-83089104D01*
X130869545Y-83089101D01*
X130983976Y-82890901D01*
X130983980Y-82890892D01*
X131062255Y-82675833D01*
X131102000Y-82450433D01*
X131102000Y-82221567D01*
X131062255Y-81996167D01*
X130983980Y-81781108D01*
X130983978Y-81781103D01*
X130948699Y-81719998D01*
X130931962Y-81651003D01*
X130955183Y-81583911D01*
X131010990Y-81540024D01*
X131069319Y-81531525D01*
X131438923Y-81565400D01*
X131442789Y-81565203D01*
X131469971Y-81566764D01*
X131473793Y-81567403D01*
X131480046Y-81567510D01*
X131480152Y-81567511D01*
X131828401Y-81571382D01*
X131896296Y-81592140D01*
X131942189Y-81646309D01*
X131953001Y-81697374D01*
X131953000Y-90933000D01*
X131932998Y-91001121D01*
X131879342Y-91047614D01*
X131827000Y-91059000D01*
X127690250Y-91059000D01*
X127622129Y-91038998D01*
X127575636Y-90985342D01*
X127565532Y-90915068D01*
X127595026Y-90850488D01*
X127601894Y-90844817D01*
X127602791Y-90838003D01*
X126873000Y-90108210D01*
X126143209Y-90838003D01*
X126144970Y-90851380D01*
X126167743Y-90875264D01*
X126181179Y-90944977D01*
X126154793Y-91010888D01*
X126096960Y-91052070D01*
X126055750Y-91059000D01*
X120880324Y-91059000D01*
X120812203Y-91038998D01*
X120765710Y-90985342D01*
X120755606Y-90915068D01*
X120791229Y-90843905D01*
X120832429Y-90802705D01*
X120832435Y-90802698D01*
X120955585Y-90623515D01*
X121044016Y-90424892D01*
X121094773Y-90213477D01*
X121102084Y-89934293D01*
X121062462Y-89720512D01*
X121062461Y-89720507D01*
X121029472Y-89634567D01*
X125565000Y-89634567D01*
X125565000Y-89863433D01*
X125604745Y-90088833D01*
X125683020Y-90303892D01*
X125683024Y-90303900D01*
X125783998Y-90478790D01*
X126513790Y-89749000D01*
X127232210Y-89749000D01*
X127962003Y-90478791D01*
X128062976Y-90303900D01*
X128062980Y-90303892D01*
X128141255Y-90088833D01*
X128181000Y-89863433D01*
X128181000Y-89634567D01*
X128141255Y-89409167D01*
X128062980Y-89194108D01*
X128062976Y-89194100D01*
X127962002Y-89019210D01*
X127232210Y-89749000D01*
X126513790Y-89749000D01*
X125783997Y-89019209D01*
X125683024Y-89194100D01*
X125683020Y-89194108D01*
X125604745Y-89409167D01*
X125565000Y-89634567D01*
X121029472Y-89634567D01*
X120984548Y-89517537D01*
X120984542Y-89517524D01*
X120870946Y-89332153D01*
X120870940Y-89332145D01*
X120725461Y-89170575D01*
X120552969Y-89038218D01*
X120359241Y-88939509D01*
X120150784Y-88877761D01*
X120150783Y-88877760D01*
X119934553Y-88855034D01*
X119717794Y-88872093D01*
X119507788Y-88928365D01*
X119311546Y-89021969D01*
X119135652Y-89149763D01*
X119009383Y-89282823D01*
X118947983Y-89318467D01*
X118877059Y-89315258D01*
X118824350Y-89280401D01*
X118725461Y-89170575D01*
X118552969Y-89038218D01*
X118359241Y-88939509D01*
X118173000Y-88884342D01*
X118172999Y-90171000D01*
X118152997Y-90239121D01*
X118099341Y-90285614D01*
X118046999Y-90297000D01*
X117791000Y-90296999D01*
X117722879Y-90276997D01*
X117676386Y-90223341D01*
X117665000Y-90170999D01*
X117665001Y-88886241D01*
X117507784Y-88928368D01*
X117311546Y-89021969D01*
X117135652Y-89149763D01*
X117009383Y-89282823D01*
X116947983Y-89318467D01*
X116877059Y-89315258D01*
X116824350Y-89280401D01*
X116725460Y-89170574D01*
X116725455Y-89170570D01*
X116666796Y-89125559D01*
X116624929Y-89068221D01*
X116617500Y-89025597D01*
X116617500Y-86449001D01*
X125557163Y-86449001D01*
X125557163Y-88048998D01*
X125626273Y-88306920D01*
X125741426Y-88444154D01*
X125896574Y-88533728D01*
X126035073Y-88558149D01*
X126098686Y-88589676D01*
X126135155Y-88650590D01*
X126135244Y-88652032D01*
X126873000Y-89389790D01*
X127614992Y-88647796D01*
X127618445Y-88625654D01*
X127665574Y-88572556D01*
X127699816Y-88557651D01*
X127930920Y-88495727D01*
X128068154Y-88380574D01*
X128157729Y-88225426D01*
X128157728Y-88225426D01*
X128188837Y-88048999D01*
X128188837Y-86449002D01*
X128119727Y-86191081D01*
X128004574Y-86053846D01*
X127849426Y-85964271D01*
X127672999Y-85933163D01*
X126073002Y-85933163D01*
X125815081Y-86002273D01*
X125677846Y-86117426D01*
X125588271Y-86272574D01*
X125557163Y-86449001D01*
X116617500Y-86449001D01*
X116617500Y-85590517D01*
X116654405Y-85501422D01*
X119320388Y-82835440D01*
X119382700Y-82801414D01*
X119427237Y-82799792D01*
X119553887Y-82817817D01*
X119792746Y-82811146D01*
X119792742Y-82811146D01*
X120027047Y-82764327D01*
X120027056Y-82764325D01*
X120250127Y-82678696D01*
X120250139Y-82678690D01*
X120455583Y-82556706D01*
X120637554Y-82401837D01*
X120790827Y-82218526D01*
X120911018Y-82012020D01*
X120911023Y-82012010D01*
X120994702Y-81788198D01*
X121039476Y-81553489D01*
X121039477Y-81553478D01*
X121042030Y-81287526D01*
X121027650Y-81203398D01*
X121035889Y-81132881D01*
X121062754Y-81093074D01*
X122697600Y-79458228D01*
X122719457Y-79440763D01*
X122726364Y-79436405D01*
X122726369Y-79436400D01*
X122776267Y-79379902D01*
X122781615Y-79374212D01*
X122798373Y-79357455D01*
X122808131Y-79344436D01*
X122814512Y-79336599D01*
X122858814Y-79286437D01*
X122858814Y-79286436D01*
X122865428Y-79272348D01*
X122878658Y-79250330D01*
X122887984Y-79237886D01*
X122887986Y-79237883D01*
X122911471Y-79175235D01*
X122915398Y-79165914D01*
X122943848Y-79105319D01*
X122943848Y-79105318D01*
X122945970Y-79091119D01*
X122952604Y-79065515D01*
X122958218Y-79050541D01*
X122958220Y-79050531D01*
X122963989Y-78972897D01*
X122965026Y-78963611D01*
X122967499Y-78947063D01*
X122967500Y-78947050D01*
X122967500Y-78930323D01*
X122967847Y-78920983D01*
X122973048Y-78851005D01*
X122970276Y-78838018D01*
X122967500Y-78811713D01*
X122967500Y-76972823D01*
X123004405Y-76883727D01*
X123055893Y-76832240D01*
X123118206Y-76798215D01*
X123189022Y-76803281D01*
X123240799Y-76839505D01*
X123312980Y-76924017D01*
X123481948Y-77060844D01*
X123673013Y-77164584D01*
X123673023Y-77164588D01*
X123879797Y-77231773D01*
X124095355Y-77260152D01*
X124095366Y-77260152D01*
X124312473Y-77248774D01*
X124312477Y-77248773D01*
X124523892Y-77198016D01*
X124722515Y-77109585D01*
X124901698Y-76986435D01*
X124901705Y-76986429D01*
X125055429Y-76832705D01*
X125055435Y-76832698D01*
X125178587Y-76653512D01*
X125185443Y-76638113D01*
X125231423Y-76584017D01*
X125299350Y-76563368D01*
X125367658Y-76582721D01*
G37*
%TD.AperFunction*%
%TA.AperFunction,Conductor*%
G36*
X108547675Y-76947711D02*
G01*
X108597093Y-76995607D01*
X108597402Y-76995348D01*
X108599911Y-76998338D01*
X108604783Y-77003060D01*
X108606270Y-77005916D01*
X108721426Y-77143154D01*
X108876574Y-77232729D01*
X109053001Y-77263837D01*
X110402998Y-77263837D01*
X110660920Y-77194727D01*
X110798153Y-77079575D01*
X110817709Y-77045702D01*
X110869091Y-76996708D01*
X110938805Y-76983271D01*
X111006123Y-77010780D01*
X111067947Y-77060844D01*
X111249622Y-77159485D01*
X111299943Y-77209568D01*
X111315500Y-77270216D01*
X111315501Y-83009944D01*
X111315500Y-84108635D01*
X111312393Y-84136442D01*
X111310591Y-84144405D01*
X111310591Y-84144408D01*
X111315258Y-84219633D01*
X111315500Y-84227435D01*
X111315500Y-84251145D01*
X111315501Y-84251159D01*
X111317805Y-84267241D01*
X111318837Y-84277309D01*
X111322980Y-84344102D01*
X111322980Y-84344103D01*
X111328264Y-84358739D01*
X111334477Y-84383661D01*
X111336682Y-84399057D01*
X111336682Y-84399058D01*
X111364383Y-84459985D01*
X111368195Y-84469349D01*
X111390919Y-84532292D01*
X111390922Y-84532298D01*
X111399460Y-84543837D01*
X111412871Y-84566627D01*
X111419499Y-84581202D01*
X111419499Y-84581203D01*
X111470333Y-84640198D01*
X111476169Y-84647503D01*
X111486102Y-84660927D01*
X111486109Y-84660936D01*
X111497918Y-84672745D01*
X111504277Y-84679593D01*
X111550102Y-84732776D01*
X111561250Y-84740002D01*
X111581812Y-84756639D01*
X111803606Y-84978433D01*
X113183596Y-86358424D01*
X113220501Y-86447519D01*
X113220500Y-88761777D01*
X113200498Y-88829898D01*
X113127111Y-88883484D01*
X112986081Y-88921273D01*
X112848846Y-89036426D01*
X112759271Y-89191574D01*
X112728163Y-89368001D01*
X112728163Y-90717998D01*
X112777034Y-90900389D01*
X112775344Y-90971366D01*
X112735550Y-91030161D01*
X112655327Y-91059000D01*
X112023775Y-91059000D01*
X111955654Y-91038998D01*
X111909161Y-90985342D01*
X111906016Y-90906025D01*
X111901814Y-90905284D01*
X111934837Y-90717999D01*
X111934837Y-89368002D01*
X111865727Y-89110081D01*
X111750574Y-88972846D01*
X111595426Y-88883271D01*
X111418999Y-88852163D01*
X110069002Y-88852163D01*
X109811081Y-88921273D01*
X109673847Y-89036425D01*
X109654132Y-89070573D01*
X109602749Y-89119567D01*
X109533036Y-89133004D01*
X109468308Y-89107537D01*
X109377969Y-89038218D01*
X109184241Y-88939509D01*
X108975784Y-88877761D01*
X108975783Y-88877760D01*
X108759553Y-88855034D01*
X108542794Y-88872093D01*
X108332788Y-88928365D01*
X108136546Y-89021969D01*
X107960652Y-89149763D01*
X107834383Y-89282823D01*
X107772983Y-89318467D01*
X107702059Y-89315258D01*
X107649350Y-89280401D01*
X107550461Y-89170575D01*
X107377969Y-89038218D01*
X107184241Y-88939509D01*
X106998000Y-88884342D01*
X106997999Y-89841191D01*
X106998000Y-89841193D01*
X106997999Y-90171000D01*
X106977997Y-90239121D01*
X106924341Y-90285614D01*
X106871999Y-90297000D01*
X105586398Y-90296999D01*
X105592489Y-90335450D01*
X105665062Y-90540392D01*
X105665066Y-90540400D01*
X105773772Y-90728686D01*
X105878384Y-90851169D01*
X105907415Y-90915958D01*
X105896810Y-90986159D01*
X105849936Y-91039481D01*
X105782573Y-91059000D01*
X102107000Y-91059000D01*
X102038879Y-91038998D01*
X101992386Y-90985342D01*
X101981000Y-90933000D01*
X101981000Y-89789000D01*
X105588475Y-89789000D01*
X106490000Y-89789001D01*
X106490001Y-88886241D01*
X106332784Y-88928368D01*
X106136546Y-89021969D01*
X105960652Y-89149763D01*
X105810991Y-89307473D01*
X105810990Y-89307474D01*
X105692578Y-89489812D01*
X105609372Y-89690687D01*
X105588475Y-89789000D01*
X101981000Y-89789000D01*
X101981000Y-86449001D01*
X102824163Y-86449001D01*
X102824163Y-88048998D01*
X102893273Y-88306920D01*
X103008426Y-88444154D01*
X103163574Y-88533729D01*
X103340001Y-88564837D01*
X104939998Y-88564837D01*
X105197920Y-88495727D01*
X105335154Y-88380574D01*
X105424729Y-88225426D01*
X105424728Y-88225426D01*
X105455837Y-88048999D01*
X105455837Y-86449002D01*
X105386727Y-86191081D01*
X105271574Y-86053846D01*
X105116426Y-85964272D01*
X104977927Y-85939851D01*
X104914314Y-85908324D01*
X104877845Y-85847410D01*
X104877756Y-85845968D01*
X104140000Y-85108210D01*
X103398008Y-85850204D01*
X103394555Y-85872346D01*
X103347426Y-85925444D01*
X103313184Y-85940349D01*
X103082081Y-86002273D01*
X102944846Y-86117426D01*
X102855271Y-86272574D01*
X102824163Y-86449001D01*
X101981000Y-86449001D01*
X101981000Y-84634567D01*
X102832000Y-84634567D01*
X102832000Y-84863433D01*
X102871745Y-85088833D01*
X102950020Y-85303892D01*
X102950024Y-85303900D01*
X103050998Y-85478790D01*
X103780790Y-84749000D01*
X104499210Y-84749000D01*
X105229003Y-85478791D01*
X105329976Y-85303900D01*
X105329980Y-85303892D01*
X105408255Y-85088833D01*
X105448000Y-84863433D01*
X105448000Y-84634567D01*
X105408255Y-84409167D01*
X105329980Y-84194108D01*
X105329976Y-84194100D01*
X105229003Y-84019209D01*
X104499210Y-84749000D01*
X103780790Y-84749000D01*
X103050998Y-84019210D01*
X102950024Y-84194100D01*
X102950020Y-84194108D01*
X102871745Y-84409167D01*
X102832000Y-84634567D01*
X101981000Y-84634567D01*
X101981000Y-83659997D01*
X103410209Y-83659997D01*
X104140000Y-84389790D01*
X104869791Y-83659997D01*
X104694900Y-83559024D01*
X104694892Y-83559020D01*
X104479833Y-83480745D01*
X104254433Y-83441000D01*
X104025567Y-83441000D01*
X103800167Y-83480745D01*
X103585108Y-83559020D01*
X103585100Y-83559024D01*
X103410209Y-83659997D01*
X101981000Y-83659997D01*
X101981000Y-81689808D01*
X102001002Y-81621687D01*
X102054658Y-81575194D01*
X102109474Y-81563832D01*
X102166897Y-81564960D01*
X102166908Y-81564959D01*
X102170749Y-81564486D01*
X102197958Y-81564094D01*
X102201821Y-81564457D01*
X102201836Y-81564458D01*
X102208064Y-81564117D01*
X102208064Y-81564116D01*
X102208337Y-81564101D01*
X102701818Y-81534137D01*
X102701826Y-81534136D01*
X102705629Y-81533354D01*
X102732723Y-81530782D01*
X102736598Y-81530835D01*
X102742816Y-81529991D01*
X102742816Y-81529990D01*
X102742948Y-81529972D01*
X103232566Y-81460508D01*
X103236290Y-81459425D01*
X103263077Y-81454689D01*
X103266958Y-81454429D01*
X103272943Y-81453122D01*
X103272972Y-81453115D01*
X103755674Y-81344557D01*
X103759302Y-81343177D01*
X103785630Y-81336308D01*
X103789470Y-81335739D01*
X103789477Y-81335738D01*
X103795498Y-81333905D01*
X103795498Y-81333904D01*
X103795691Y-81333845D01*
X104267804Y-81187025D01*
X104267812Y-81187022D01*
X104271310Y-81185359D01*
X104297007Y-81176398D01*
X104300784Y-81175524D01*
X104306666Y-81173204D01*
X104765650Y-80988929D01*
X104765657Y-80988926D01*
X104769012Y-80986987D01*
X104793902Y-80975997D01*
X104797595Y-80974824D01*
X104797604Y-80974820D01*
X104803133Y-80972108D01*
X104803283Y-80972034D01*
X104803283Y-80972035D01*
X104803303Y-80972025D01*
X105246008Y-80751543D01*
X105246010Y-80751542D01*
X105249199Y-80749340D01*
X105273132Y-80736386D01*
X105276725Y-80734918D01*
X105282283Y-80731614D01*
X105705781Y-80476398D01*
X105705790Y-80476392D01*
X105708798Y-80473937D01*
X105731595Y-80459118D01*
X105735074Y-80457358D01*
X105740212Y-80453715D01*
X106142009Y-80165262D01*
X106142021Y-80165253D01*
X106144804Y-80162581D01*
X106166371Y-80145958D01*
X106169669Y-80143943D01*
X106174455Y-80139939D01*
X106174645Y-80139779D01*
X106551877Y-79820147D01*
X106554441Y-79817257D01*
X106574606Y-79798956D01*
X106577741Y-79796676D01*
X106582200Y-79792290D01*
X106932751Y-79443267D01*
X106935079Y-79440175D01*
X106953705Y-79420323D01*
X106956641Y-79417805D01*
X106956651Y-79417794D01*
X106960622Y-79413206D01*
X107282165Y-79037065D01*
X107284243Y-79033788D01*
X107301207Y-79012519D01*
X107303940Y-79009764D01*
X107303948Y-79009754D01*
X107307558Y-79004835D01*
X107597878Y-78604146D01*
X107599685Y-78600715D01*
X107614893Y-78578147D01*
X107617396Y-78575182D01*
X107617405Y-78575170D01*
X107620634Y-78569936D01*
X107877853Y-78147305D01*
X107879380Y-78143737D01*
X107892729Y-78120023D01*
X107894988Y-78116864D01*
X107894993Y-78116857D01*
X107897777Y-78111410D01*
X108120295Y-77669468D01*
X108121528Y-77665800D01*
X108132931Y-77641090D01*
X108134933Y-77637755D01*
X108134934Y-77637752D01*
X108137259Y-77632130D01*
X108137363Y-77631876D01*
X108323627Y-77173742D01*
X108324562Y-77169985D01*
X108333951Y-77144432D01*
X108335676Y-77140953D01*
X108337543Y-77135162D01*
X108372868Y-77023298D01*
X108412455Y-76964363D01*
X108477620Y-76936185D01*
X108547675Y-76947711D01*
G37*
%TD.AperFunction*%
%TA.AperFunction,Conductor*%
G36*
X118930346Y-75077002D02*
G01*
X118976839Y-75130658D01*
X118979984Y-75209975D01*
X118984186Y-75210716D01*
X118951163Y-75398001D01*
X118951163Y-76747998D01*
X119020273Y-77005920D01*
X119135426Y-77143154D01*
X119261675Y-77216044D01*
X119310668Y-77267427D01*
X119324104Y-77337140D01*
X119297718Y-77403051D01*
X119239885Y-77444233D01*
X119198675Y-77451163D01*
X118734002Y-77451163D01*
X118476081Y-77520273D01*
X118338846Y-77635426D01*
X118249271Y-77790574D01*
X118218163Y-77967001D01*
X118218163Y-79766998D01*
X118287273Y-80024920D01*
X118402426Y-80162154D01*
X118567120Y-80257240D01*
X118565173Y-80260612D01*
X118605904Y-80290587D01*
X118631258Y-80356902D01*
X118595988Y-80454761D01*
X118541276Y-80511023D01*
X118405934Y-80707945D01*
X118305708Y-80924855D01*
X118305707Y-80924857D01*
X118243462Y-81155550D01*
X118220975Y-81393437D01*
X118238890Y-81631702D01*
X118238892Y-81631715D01*
X118283426Y-81810331D01*
X118280498Y-81881267D01*
X118250264Y-81929908D01*
X115490404Y-84689769D01*
X115468544Y-84707236D01*
X115461634Y-84711596D01*
X115461631Y-84711598D01*
X115411729Y-84768102D01*
X115406381Y-84773793D01*
X115389629Y-84790544D01*
X115389623Y-84790551D01*
X115379878Y-84803554D01*
X115373492Y-84811398D01*
X115329187Y-84861564D01*
X115322574Y-84875650D01*
X115309342Y-84897671D01*
X115300015Y-84910115D01*
X115276521Y-84972784D01*
X115272594Y-84982102D01*
X115244155Y-85042677D01*
X115242032Y-85056879D01*
X115235398Y-85082480D01*
X115229782Y-85097461D01*
X115229781Y-85097468D01*
X115224009Y-85175122D01*
X115222972Y-85184405D01*
X115220501Y-85200941D01*
X115220501Y-85217659D01*
X115220155Y-85226997D01*
X115214953Y-85296997D01*
X115217725Y-85309982D01*
X115220501Y-85336286D01*
X115220500Y-88978143D01*
X115200498Y-89046264D01*
X115146842Y-89092757D01*
X115076568Y-89102860D01*
X114997978Y-89059134D01*
X114925574Y-88972846D01*
X114770426Y-88883272D01*
X114721621Y-88874666D01*
X114658008Y-88843139D01*
X114617500Y-88750580D01*
X114617500Y-86198365D01*
X114620607Y-86170558D01*
X114622409Y-86162595D01*
X114622409Y-86162592D01*
X114617742Y-86087367D01*
X114617500Y-86079565D01*
X114617500Y-86055854D01*
X114617499Y-86055840D01*
X114615195Y-86039758D01*
X114614163Y-86029690D01*
X114610020Y-85962897D01*
X114610020Y-85962896D01*
X114604736Y-85948260D01*
X114598523Y-85923338D01*
X114596318Y-85907942D01*
X114596318Y-85907941D01*
X114568617Y-85847014D01*
X114564805Y-85837650D01*
X114542081Y-85774707D01*
X114542078Y-85774701D01*
X114533540Y-85763162D01*
X114520129Y-85740372D01*
X114513503Y-85725800D01*
X114513501Y-85725797D01*
X114462672Y-85666807D01*
X114456837Y-85659503D01*
X114446899Y-85646071D01*
X114446896Y-85646069D01*
X114435077Y-85634250D01*
X114428716Y-85627399D01*
X114382899Y-85574226D01*
X114371753Y-85567001D01*
X114351190Y-85550363D01*
X112749405Y-83948578D01*
X112712500Y-83859483D01*
X112712500Y-81886259D01*
X112732502Y-81818138D01*
X112786158Y-81771645D01*
X112856432Y-81761541D01*
X112921012Y-81791035D01*
X112960757Y-81855777D01*
X112962696Y-81863552D01*
X112962697Y-81863555D01*
X113058739Y-82082348D01*
X113190278Y-82281836D01*
X113353540Y-82456303D01*
X113353544Y-82456307D01*
X113543868Y-82600770D01*
X113543870Y-82600772D01*
X113755817Y-82711105D01*
X113983321Y-82784148D01*
X114219888Y-82817817D01*
X114458746Y-82811146D01*
X114458742Y-82811146D01*
X114693047Y-82764327D01*
X114693056Y-82764325D01*
X114916127Y-82678696D01*
X114916139Y-82678690D01*
X115121583Y-82556706D01*
X115303554Y-82401837D01*
X115456827Y-82218526D01*
X115577018Y-82012020D01*
X115577023Y-82012010D01*
X115660702Y-81788198D01*
X115705476Y-81553489D01*
X115705477Y-81553478D01*
X115708030Y-81287528D01*
X115667769Y-81051993D01*
X115588405Y-80826626D01*
X115588399Y-80826611D01*
X115472196Y-80617836D01*
X115472195Y-80617834D01*
X115323457Y-80432842D01*
X115296361Y-80367220D01*
X115309044Y-80297365D01*
X115389042Y-80232183D01*
X115457920Y-80213727D01*
X115595154Y-80098574D01*
X115684729Y-79943426D01*
X115684728Y-79943426D01*
X115715837Y-79766999D01*
X115715837Y-77967002D01*
X115646727Y-77709081D01*
X115531574Y-77571846D01*
X115376426Y-77482271D01*
X115199999Y-77451163D01*
X114120031Y-77451163D01*
X114051910Y-77431161D01*
X114005417Y-77377505D01*
X113995313Y-77307231D01*
X114024807Y-77242651D01*
X114090617Y-77202644D01*
X114109892Y-77198016D01*
X114308515Y-77109585D01*
X114487698Y-76986435D01*
X114487705Y-76986429D01*
X114641429Y-76832705D01*
X114641435Y-76832698D01*
X114764585Y-76653515D01*
X114853016Y-76454892D01*
X114903773Y-76243477D01*
X114911084Y-75964293D01*
X114871462Y-75750512D01*
X114871461Y-75750507D01*
X114793548Y-75547537D01*
X114793542Y-75547524D01*
X114679946Y-75362153D01*
X114679940Y-75362145D01*
X114594550Y-75267311D01*
X114563833Y-75203304D01*
X114572596Y-75132850D01*
X114618059Y-75078319D01*
X114688186Y-75057000D01*
X118862225Y-75057000D01*
X118930346Y-75077002D01*
G37*
%TD.AperFunction*%
%TD*%
M02*
