%TF.GenerationSoftware,KiCad,Pcbnew,6.0.0+dfsg1-2*%
%TF.CreationDate,2022-01-11T20:59:37+02:00*%
%TF.ProjectId,aceitera,61636569-7465-4726-912e-6b696361645f,rev?*%
%TF.SameCoordinates,Original*%
%TF.FileFunction,Copper,L1,Top*%
%TF.FilePolarity,Positive*%
%FSLAX46Y46*%
G04 Gerber Fmt 4.6, Leading zero omitted, Abs format (unit mm)*
G04 Created by KiCad (PCBNEW 6.0.0+dfsg1-2) date 2022-01-11 20:59:37*
%MOMM*%
%LPD*%
G01*
G04 APERTURE LIST*
G04 Aperture macros list*
%AMRoundRect*
0 Rectangle with rounded corners*
0 $1 Rounding radius*
0 $2 $3 $4 $5 $6 $7 $8 $9 X,Y pos of 4 corners*
0 Add a 4 corners polygon primitive as box body*
4,1,4,$2,$3,$4,$5,$6,$7,$8,$9,$2,$3,0*
0 Add four circle primitives for the rounded corners*
1,1,$1+$1,$2,$3*
1,1,$1+$1,$4,$5*
1,1,$1+$1,$6,$7*
1,1,$1+$1,$8,$9*
0 Add four rect primitives between the rounded corners*
20,1,$1+$1,$2,$3,$4,$5,0*
20,1,$1+$1,$4,$5,$6,$7,0*
20,1,$1+$1,$6,$7,$8,$9,0*
20,1,$1+$1,$8,$9,$2,$3,0*%
G04 Aperture macros list end*
%TA.AperFunction,ComponentPad*%
%ADD10R,1.350000X1.350000*%
%TD*%
%TA.AperFunction,ComponentPad*%
%ADD11O,1.350000X1.350000*%
%TD*%
%TA.AperFunction,SMDPad,CuDef*%
%ADD12RoundRect,0.250000X0.325000X0.450000X-0.325000X0.450000X-0.325000X-0.450000X0.325000X-0.450000X0*%
%TD*%
%TA.AperFunction,ComponentPad*%
%ADD13R,1.600000X1.600000*%
%TD*%
%TA.AperFunction,ComponentPad*%
%ADD14C,1.600000*%
%TD*%
%TA.AperFunction,SMDPad,CuDef*%
%ADD15R,1.900000X0.800000*%
%TD*%
%TA.AperFunction,SMDPad,CuDef*%
%ADD16RoundRect,0.250000X-0.325000X-0.450000X0.325000X-0.450000X0.325000X0.450000X-0.325000X0.450000X0*%
%TD*%
%TA.AperFunction,ComponentPad*%
%ADD17R,1.800000X1.800000*%
%TD*%
%TA.AperFunction,ComponentPad*%
%ADD18C,1.800000*%
%TD*%
%TA.AperFunction,ViaPad*%
%ADD19C,0.800000*%
%TD*%
%TA.AperFunction,Conductor*%
%ADD20C,0.381000*%
%TD*%
G04 APERTURE END LIST*
D10*
%TO.P,RV1,1,1*%
%TO.N,Net-(C3-Pad2)*%
X110744000Y-90043000D03*
D11*
%TO.P,RV1,2,2*%
%TO.N,OUT*%
X108744000Y-90043000D03*
%TO.P,RV1,3,3*%
%TO.N,GND*%
X106744000Y-90043000D03*
%TD*%
D12*
%TO.P,C5,1*%
%TO.N,Net-(C1-Pad2)*%
X110626000Y-83566000D03*
%TO.P,C5,2*%
%TO.N,GND*%
X108576000Y-83566000D03*
%TD*%
D10*
%TO.P,J1,1,Pin_1*%
%TO.N,IN*%
X113919000Y-90043000D03*
D11*
%TO.P,J1,2,Pin_2*%
%TO.N,+9V*%
X115919000Y-90043000D03*
%TO.P,J1,3,Pin_3*%
%TO.N,GND*%
X117919000Y-90043000D03*
%TO.P,J1,4,Pin_4*%
%TO.N,OUT*%
X119919000Y-90043000D03*
%TD*%
D13*
%TO.P,C4,1*%
%TO.N,Net-(C4-Pad1)*%
X126873000Y-87249000D03*
D14*
%TO.P,C4,2*%
%TO.N,GND*%
X126873000Y-89749000D03*
%TD*%
D15*
%TO.P,Q2,1,D*%
%TO.N,Net-(C2-Pad1)*%
X113816000Y-83505000D03*
%TO.P,Q2,2,S*%
%TO.N,Net-(C6-Pad1)*%
X113816000Y-85405000D03*
%TO.P,Q2,3,G*%
%TO.N,Net-(C1-Pad2)*%
X116816000Y-84455000D03*
%TD*%
D16*
%TO.P,R3,1*%
%TO.N,Net-(C2-Pad2)*%
X122673000Y-83439000D03*
%TO.P,R3,2*%
%TO.N,GND*%
X124723000Y-83439000D03*
%TD*%
D12*
%TO.P,R4,1*%
%TO.N,VCC*%
X125104000Y-79375000D03*
%TO.P,R4,2*%
%TO.N,Net-(C4-Pad1)*%
X123054000Y-79375000D03*
%TD*%
D16*
%TO.P,R2,1*%
%TO.N,Net-(C4-Pad1)*%
X123054000Y-81407000D03*
%TO.P,R2,2*%
%TO.N,Net-(C2-Pad2)*%
X125104000Y-81407000D03*
%TD*%
D13*
%TO.P,C6,1*%
%TO.N,Net-(C6-Pad1)*%
X104140000Y-87249000D03*
D14*
%TO.P,C6,2*%
%TO.N,GND*%
X104140000Y-84749000D03*
%TD*%
D13*
%TO.P,C2,1*%
%TO.N,Net-(C2-Pad1)*%
X129794000Y-84836000D03*
D14*
%TO.P,C2,2*%
%TO.N,Net-(C2-Pad2)*%
X129794000Y-82336000D03*
%TD*%
D12*
%TO.P,R1,1*%
%TO.N,Net-(C1-Pad2)*%
X111261000Y-85471000D03*
%TO.P,R1,2*%
%TO.N,GND*%
X109211000Y-85471000D03*
%TD*%
D15*
%TO.P,Q1,1,D*%
%TO.N,Net-(C4-Pad1)*%
X119912000Y-85410000D03*
%TO.P,Q1,2,S*%
%TO.N,Net-(C2-Pad1)*%
X119912000Y-87310000D03*
%TO.P,Q1,3,G*%
%TO.N,Net-(C2-Pad2)*%
X122912000Y-86360000D03*
%TD*%
D10*
%TO.P,SW2,1,A*%
%TO.N,Net-(C1-Pad1)*%
X109728000Y-76073000D03*
D11*
%TO.P,SW2,2,B*%
%TO.N,IN*%
X111728000Y-76073000D03*
%TO.P,SW2,3,C*%
%TO.N,Net-(C7-Pad1)*%
X113728000Y-76073000D03*
%TD*%
D17*
%TO.P,D2,1,K*%
%TO.N,VCC*%
X114300000Y-78867000D03*
D18*
%TO.P,D2,2,A*%
%TO.N,Net-(D1-Pad1)*%
X114300000Y-81407000D03*
%TD*%
D12*
%TO.P,C7,1*%
%TO.N,Net-(C7-Pad1)*%
X110626000Y-81534000D03*
%TO.P,C7,2*%
%TO.N,Net-(C1-Pad2)*%
X108576000Y-81534000D03*
%TD*%
D16*
%TO.P,C1,1*%
%TO.N,Net-(C1-Pad1)*%
X108576000Y-79502000D03*
%TO.P,C1,2*%
%TO.N,Net-(C1-Pad2)*%
X110626000Y-79502000D03*
%TD*%
D12*
%TO.P,R5,1*%
%TO.N,Net-(C6-Pad1)*%
X111261000Y-87503000D03*
%TO.P,R5,2*%
%TO.N,GND*%
X109211000Y-87503000D03*
%TD*%
D17*
%TO.P,D1,1,K*%
%TO.N,Net-(D1-Pad1)*%
X119634000Y-78867000D03*
D18*
%TO.P,D1,2,A*%
%TO.N,+9V*%
X119634000Y-81407000D03*
%TD*%
D12*
%TO.P,C3,1*%
%TO.N,Net-(C2-Pad1)*%
X115579000Y-87249000D03*
%TO.P,C3,2*%
%TO.N,Net-(C3-Pad2)*%
X113529000Y-87249000D03*
%TD*%
D10*
%TO.P,SW1,1,1*%
%TO.N,VCC*%
X120142000Y-76073000D03*
D11*
%TO.P,SW1,2,2*%
%TO.N,+9V*%
X122142000Y-76073000D03*
%TO.P,SW1,3,3*%
%TO.N,Net-(D1-Pad1)*%
X124142000Y-76073000D03*
%TD*%
D19*
%TO.N,GND*%
X126492000Y-84963000D03*
X112395000Y-90043000D03*
X118999000Y-83820000D03*
X116586000Y-82677000D03*
%TD*%
D20*
%TO.N,Net-(C1-Pad2)*%
X108576000Y-81534000D02*
X108594000Y-81534000D01*
X108594000Y-81534000D02*
X110626000Y-83566000D01*
X108594000Y-81534000D02*
X110626000Y-79502000D01*
X110626000Y-83566000D02*
X110626000Y-84963000D01*
X110617000Y-83557000D02*
X110626000Y-83566000D01*
X110626000Y-84963000D02*
X111261000Y-85598000D01*
X115075499Y-82714499D02*
X116816000Y-84455000D01*
X111477501Y-82714499D02*
X115075499Y-82714499D01*
X110626000Y-83566000D02*
X111477501Y-82714499D01*
%TO.N,Net-(C1-Pad1)*%
X108576000Y-79502000D02*
X108576000Y-77225000D01*
X108576000Y-77225000D02*
X109728000Y-76073000D01*
%TO.N,Net-(C2-Pad2)*%
X129667000Y-82336000D02*
X126033000Y-82336000D01*
X122673000Y-83439000D02*
X123037988Y-83439000D01*
X125069988Y-81407000D02*
X125104000Y-81407000D01*
X123037988Y-83439000D02*
X125069988Y-81407000D01*
X122673000Y-83439000D02*
X122673000Y-86375000D01*
X122673000Y-86375000D02*
X122912000Y-86614000D01*
X126033000Y-82336000D02*
X125104000Y-81407000D01*
%TO.N,Net-(C2-Pad1)*%
X115475499Y-87272499D02*
X115475499Y-84741499D01*
X115579000Y-87376000D02*
X115475499Y-87272499D01*
X122634490Y-88439510D02*
X121459510Y-88439510D01*
X127834754Y-88439510D02*
X129667000Y-86607264D01*
X121459510Y-88439510D02*
X120584000Y-87564000D01*
X120584000Y-87564000D02*
X119912000Y-87564000D01*
X122634490Y-88439510D02*
X127834754Y-88439510D01*
X119724000Y-87376000D02*
X119912000Y-87564000D01*
X119851000Y-87503000D02*
X119912000Y-87564000D01*
X115579000Y-87376000D02*
X119724000Y-87376000D01*
X115475499Y-84741499D02*
X114366000Y-83632000D01*
X114366000Y-83632000D02*
X113816000Y-83632000D01*
X129667000Y-86607264D02*
X129667000Y-84836000D01*
%TO.N,Net-(C3-Pad2)*%
X111422012Y-89027000D02*
X111422012Y-89364988D01*
X112649000Y-87376000D02*
X112268000Y-87757000D01*
X112268000Y-88181012D02*
X111422012Y-89027000D01*
X113529000Y-87376000D02*
X112649000Y-87376000D01*
X111422012Y-89364988D02*
X110744000Y-90043000D01*
X112268000Y-87757000D02*
X112268000Y-88181012D01*
%TO.N,Net-(C4-Pad1)*%
X126717499Y-87404501D02*
X121649599Y-87404501D01*
X120170501Y-83715499D02*
X122479000Y-81407000D01*
X123054000Y-81407000D02*
X123054000Y-79375000D01*
X121649599Y-87404501D02*
X121571499Y-87326401D01*
X126873000Y-87249000D02*
X126717499Y-87404501D01*
X119912000Y-85664000D02*
X120170501Y-85405499D01*
X121571499Y-87326401D02*
X121571499Y-86773499D01*
X120462000Y-85664000D02*
X119912000Y-85664000D01*
X122479000Y-81407000D02*
X123054000Y-81407000D01*
X121571499Y-86773499D02*
X120462000Y-85664000D01*
X120170501Y-85405499D02*
X120170501Y-83715499D01*
%TO.N,Net-(C6-Pad1)*%
X113232000Y-85532000D02*
X113816000Y-85532000D01*
X110170490Y-88593510D02*
X111261000Y-87503000D01*
X104140000Y-87249000D02*
X105484510Y-88593510D01*
X105484510Y-88593510D02*
X110170490Y-88593510D01*
X111261000Y-87503000D02*
X113232000Y-85532000D01*
%TO.N,Net-(C7-Pad1)*%
X110626000Y-81534000D02*
X111591510Y-80568490D01*
X113728000Y-77027594D02*
X113728000Y-76073000D01*
X111591510Y-79164084D02*
X113728000Y-77027594D01*
X111591510Y-80568490D02*
X111591510Y-79164084D01*
%TO.N,Net-(D1-Pad1)*%
X119634000Y-78994000D02*
X120142000Y-78994000D01*
X119634000Y-78994000D02*
X121348000Y-78994000D01*
X114300000Y-81534000D02*
X117094000Y-81534000D01*
X121348000Y-78994000D02*
X124269000Y-76073000D01*
X117094000Y-81534000D02*
X119634000Y-78994000D01*
%TO.N,VCC*%
X125104000Y-79375000D02*
X125207501Y-79271499D01*
X114300000Y-78994000D02*
X117221000Y-76073000D01*
X124653441Y-75007499D02*
X123620501Y-75007499D01*
X117221000Y-76073000D02*
X120269000Y-76073000D01*
X120269000Y-76073000D02*
X121334501Y-75007499D01*
X121334501Y-75007499D02*
X123620501Y-75007499D01*
X125207501Y-75561559D02*
X124653441Y-75007499D01*
X125207501Y-79271499D02*
X125207501Y-75561559D01*
%TO.N,OUT*%
X109809501Y-91108501D02*
X118853499Y-91108501D01*
X108744000Y-90043000D02*
X109809501Y-91108501D01*
X118853499Y-91108501D02*
X119919000Y-90043000D01*
%TD*%
%TA.AperFunction,Conductor*%
%TO.N,GND*%
G36*
X107456698Y-79039451D02*
G01*
X107489945Y-79102183D01*
X107492500Y-79127430D01*
X107492500Y-80002400D01*
X107492837Y-80005646D01*
X107492837Y-80005650D01*
X107494419Y-80020891D01*
X107503474Y-80108166D01*
X107505655Y-80114702D01*
X107505655Y-80114704D01*
X107514761Y-80141998D01*
X107559450Y-80275946D01*
X107652522Y-80426348D01*
X107657704Y-80431521D01*
X107662251Y-80437258D01*
X107660449Y-80438686D01*
X107689191Y-80491226D01*
X107684181Y-80562045D01*
X107660458Y-80599024D01*
X107661404Y-80599771D01*
X107656866Y-80605517D01*
X107651695Y-80610697D01*
X107647855Y-80616927D01*
X107647854Y-80616928D01*
X107595486Y-80701885D01*
X107558885Y-80761262D01*
X107550688Y-80785975D01*
X107508125Y-80914301D01*
X107503203Y-80929139D01*
X107502503Y-80935975D01*
X107502502Y-80935978D01*
X107498091Y-80979031D01*
X107492500Y-81033600D01*
X107492500Y-82034400D01*
X107492837Y-82037646D01*
X107492837Y-82037650D01*
X107500128Y-82107913D01*
X107503474Y-82140166D01*
X107505655Y-82146702D01*
X107505655Y-82146704D01*
X107535922Y-82237423D01*
X107559450Y-82307946D01*
X107652522Y-82458348D01*
X107657704Y-82463521D01*
X107662251Y-82469258D01*
X107660560Y-82470598D01*
X107689543Y-82523569D01*
X107684538Y-82594389D01*
X107660843Y-82631328D01*
X107661799Y-82632083D01*
X107648249Y-82649240D01*
X107563184Y-82787243D01*
X107557037Y-82800424D01*
X107505862Y-82954710D01*
X107502995Y-82968086D01*
X107493328Y-83062438D01*
X107493000Y-83068855D01*
X107493000Y-83293885D01*
X107497475Y-83309124D01*
X107498865Y-83310329D01*
X107506548Y-83312000D01*
X108704000Y-83312000D01*
X108772121Y-83332002D01*
X108818614Y-83385658D01*
X108830000Y-83438000D01*
X108830000Y-83694000D01*
X108809998Y-83762121D01*
X108756342Y-83808614D01*
X108704000Y-83820000D01*
X107511116Y-83820000D01*
X107495877Y-83824475D01*
X107494672Y-83825865D01*
X107493001Y-83833548D01*
X107493001Y-84063095D01*
X107493338Y-84069614D01*
X107503257Y-84165206D01*
X107506149Y-84178600D01*
X107557588Y-84332784D01*
X107563761Y-84345962D01*
X107649063Y-84483807D01*
X107658099Y-84495208D01*
X107772829Y-84609739D01*
X107784240Y-84618751D01*
X107922243Y-84703816D01*
X107935424Y-84709963D01*
X108051518Y-84748470D01*
X108109877Y-84788901D01*
X108137114Y-84854465D01*
X108137194Y-84880906D01*
X108128328Y-84967440D01*
X108128000Y-84973854D01*
X108128000Y-85198885D01*
X108132475Y-85214124D01*
X108133865Y-85215329D01*
X108141548Y-85217000D01*
X109339000Y-85217000D01*
X109407121Y-85237002D01*
X109453614Y-85290658D01*
X109465000Y-85343000D01*
X109465000Y-87631000D01*
X109444998Y-87699121D01*
X109391342Y-87745614D01*
X109339000Y-87757000D01*
X108146116Y-87757000D01*
X108130877Y-87761475D01*
X108129672Y-87762865D01*
X108125122Y-87783783D01*
X108123613Y-87783455D01*
X108107999Y-87836631D01*
X108054343Y-87883124D01*
X108002001Y-87894510D01*
X105826236Y-87894510D01*
X105758115Y-87874508D01*
X105737141Y-87857605D01*
X105485405Y-87605869D01*
X105451379Y-87543557D01*
X105448500Y-87516774D01*
X105448500Y-87230885D01*
X108128000Y-87230885D01*
X108132475Y-87246124D01*
X108133865Y-87247329D01*
X108141548Y-87249000D01*
X108938885Y-87249000D01*
X108954124Y-87244525D01*
X108955329Y-87243135D01*
X108957000Y-87235452D01*
X108957000Y-85743115D01*
X108952525Y-85727876D01*
X108951135Y-85726671D01*
X108943452Y-85725000D01*
X108146116Y-85725000D01*
X108130877Y-85729475D01*
X108129672Y-85730865D01*
X108128001Y-85738548D01*
X108128001Y-85968095D01*
X108128338Y-85974614D01*
X108138257Y-86070206D01*
X108141149Y-86083600D01*
X108192588Y-86237784D01*
X108198761Y-86250962D01*
X108284063Y-86388807D01*
X108297646Y-86405945D01*
X108295942Y-86407296D01*
X108324896Y-86460214D01*
X108319893Y-86531034D01*
X108295926Y-86568394D01*
X108296799Y-86569083D01*
X108283249Y-86586240D01*
X108198184Y-86724243D01*
X108192037Y-86737424D01*
X108140862Y-86891710D01*
X108137995Y-86905086D01*
X108128328Y-86999438D01*
X108128000Y-87005854D01*
X108128000Y-87230885D01*
X105448500Y-87230885D01*
X105448500Y-86400866D01*
X105441745Y-86338684D01*
X105390615Y-86202295D01*
X105303261Y-86085739D01*
X105186705Y-85998385D01*
X105050316Y-85947255D01*
X105006748Y-85942522D01*
X104991514Y-85940867D01*
X104991511Y-85940867D01*
X104988134Y-85940500D01*
X104984815Y-85940500D01*
X104917890Y-85916847D01*
X104882196Y-85870844D01*
X104880266Y-85871859D01*
X104874558Y-85861000D01*
X104874368Y-85860755D01*
X104874347Y-85860597D01*
X104854356Y-85822566D01*
X104152812Y-85121022D01*
X104138868Y-85113408D01*
X104137035Y-85113539D01*
X104130420Y-85117790D01*
X103424923Y-85823287D01*
X103402129Y-85865029D01*
X103399953Y-85875029D01*
X103349747Y-85925227D01*
X103296186Y-85940451D01*
X103295281Y-85940500D01*
X103291866Y-85940500D01*
X103288470Y-85940869D01*
X103288468Y-85940869D01*
X103276121Y-85942210D01*
X103229684Y-85947255D01*
X103093295Y-85998385D01*
X102976739Y-86085739D01*
X102889385Y-86202295D01*
X102838255Y-86338684D01*
X102831500Y-86400866D01*
X102831500Y-88097134D01*
X102838255Y-88159316D01*
X102889385Y-88295705D01*
X102976739Y-88412261D01*
X103093295Y-88499615D01*
X103229684Y-88550745D01*
X103291866Y-88557500D01*
X104407775Y-88557500D01*
X104475896Y-88577502D01*
X104496870Y-88594405D01*
X104970010Y-89067545D01*
X104975856Y-89073801D01*
X105013352Y-89116784D01*
X105050198Y-89142680D01*
X105064899Y-89153012D01*
X105070194Y-89156945D01*
X105119749Y-89195801D01*
X105126673Y-89198927D01*
X105129722Y-89200774D01*
X105142388Y-89207999D01*
X105145553Y-89209696D01*
X105151771Y-89214066D01*
X105210506Y-89236966D01*
X105216519Y-89239493D01*
X105273945Y-89265422D01*
X105281413Y-89266806D01*
X105284821Y-89267874D01*
X105298868Y-89271876D01*
X105302323Y-89272763D01*
X105309399Y-89275522D01*
X105371863Y-89283745D01*
X105378355Y-89284773D01*
X105440297Y-89296254D01*
X105447877Y-89295817D01*
X105447878Y-89295817D01*
X105501604Y-89292719D01*
X105508857Y-89292510D01*
X105593349Y-89292510D01*
X105661470Y-89312512D01*
X105707963Y-89366168D01*
X105718067Y-89436442D01*
X105704857Y-89477178D01*
X105649058Y-89583233D01*
X105644655Y-89593863D01*
X105589436Y-89771700D01*
X105589218Y-89785799D01*
X105595950Y-89789000D01*
X106872000Y-89789000D01*
X106940121Y-89809002D01*
X106986614Y-89862658D01*
X106998000Y-89915000D01*
X106998000Y-90171000D01*
X106977998Y-90239121D01*
X106924342Y-90285614D01*
X106872000Y-90297000D01*
X105605981Y-90297000D01*
X105592450Y-90300973D01*
X105591158Y-90309962D01*
X105622656Y-90433985D01*
X105626497Y-90444832D01*
X105712685Y-90631789D01*
X105718436Y-90641750D01*
X105837254Y-90809873D01*
X105844720Y-90818615D01*
X105869491Y-90842746D01*
X105904328Y-90904607D01*
X105900191Y-90975483D01*
X105858392Y-91032871D01*
X105792202Y-91058551D01*
X105781569Y-91059000D01*
X102107000Y-91059000D01*
X102038879Y-91038998D01*
X101992386Y-90985342D01*
X101981000Y-90933000D01*
X101981000Y-84754475D01*
X102827483Y-84754475D01*
X102846472Y-84971519D01*
X102848375Y-84982312D01*
X102904764Y-85192761D01*
X102908510Y-85203053D01*
X103000586Y-85400511D01*
X103006069Y-85410006D01*
X103042509Y-85462048D01*
X103052988Y-85470424D01*
X103066434Y-85463356D01*
X103767978Y-84761812D01*
X103774356Y-84750132D01*
X104504408Y-84750132D01*
X104504539Y-84751965D01*
X104508790Y-84758580D01*
X105214287Y-85464077D01*
X105226062Y-85470507D01*
X105238077Y-85461211D01*
X105273931Y-85410006D01*
X105279414Y-85400511D01*
X105371490Y-85203053D01*
X105375236Y-85192761D01*
X105431625Y-84982312D01*
X105433528Y-84971519D01*
X105452517Y-84754475D01*
X105452517Y-84743525D01*
X105433528Y-84526481D01*
X105431625Y-84515688D01*
X105375236Y-84305239D01*
X105371490Y-84294947D01*
X105279414Y-84097489D01*
X105273931Y-84087994D01*
X105237491Y-84035952D01*
X105227012Y-84027576D01*
X105213566Y-84034644D01*
X104512022Y-84736188D01*
X104504408Y-84750132D01*
X103774356Y-84750132D01*
X103775592Y-84747868D01*
X103775461Y-84746035D01*
X103771210Y-84739420D01*
X103065713Y-84033923D01*
X103053938Y-84027493D01*
X103041923Y-84036789D01*
X103006069Y-84087994D01*
X103000586Y-84097489D01*
X102908510Y-84294947D01*
X102904764Y-84305239D01*
X102848375Y-84515688D01*
X102846472Y-84526481D01*
X102827483Y-84743525D01*
X102827483Y-84754475D01*
X101981000Y-84754475D01*
X101981000Y-83661988D01*
X103418576Y-83661988D01*
X103425644Y-83675434D01*
X104127188Y-84376978D01*
X104141132Y-84384592D01*
X104142965Y-84384461D01*
X104149580Y-84380210D01*
X104855077Y-83674713D01*
X104861507Y-83662938D01*
X104852211Y-83650923D01*
X104801006Y-83615069D01*
X104791511Y-83609586D01*
X104594053Y-83517510D01*
X104583761Y-83513764D01*
X104373312Y-83457375D01*
X104362519Y-83455472D01*
X104145475Y-83436483D01*
X104134525Y-83436483D01*
X103917481Y-83455472D01*
X103906688Y-83457375D01*
X103696239Y-83513764D01*
X103685947Y-83517510D01*
X103488489Y-83609586D01*
X103478994Y-83615069D01*
X103426952Y-83651509D01*
X103418576Y-83661988D01*
X101981000Y-83661988D01*
X101981000Y-81687240D01*
X102001002Y-81619119D01*
X102054658Y-81572626D01*
X102104693Y-81561261D01*
X102412198Y-81555629D01*
X102422300Y-81555444D01*
X102919254Y-81509044D01*
X103411352Y-81425644D01*
X103895844Y-81305709D01*
X103898081Y-81304974D01*
X104367790Y-81150643D01*
X104367797Y-81150640D01*
X104370020Y-81149910D01*
X104831230Y-80959118D01*
X104903631Y-80922611D01*
X105274802Y-80735456D01*
X105274815Y-80735449D01*
X105276895Y-80734400D01*
X105704525Y-80477011D01*
X106111729Y-80188391D01*
X106121108Y-80180629D01*
X106494406Y-79871663D01*
X106494411Y-79871658D01*
X106496230Y-79870153D01*
X106671266Y-79701722D01*
X106854188Y-79525703D01*
X106854198Y-79525692D01*
X106855878Y-79524076D01*
X107188664Y-79152095D01*
X107191941Y-79147830D01*
X107266580Y-79050670D01*
X107323942Y-79008835D01*
X107394815Y-79004653D01*
X107456698Y-79039451D01*
G37*
%TD.AperFunction*%
%TA.AperFunction,Conductor*%
G36*
X131306550Y-81552086D02*
G01*
X131514257Y-81568949D01*
X131827619Y-81570478D01*
X131895637Y-81590812D01*
X131941868Y-81644694D01*
X131953000Y-81696476D01*
X131953000Y-90933000D01*
X131932998Y-91001121D01*
X131879342Y-91047614D01*
X131827000Y-91059000D01*
X127678205Y-91059000D01*
X127610084Y-91038998D01*
X127563591Y-90985342D01*
X127553487Y-90915068D01*
X127579783Y-90854330D01*
X127594424Y-90836013D01*
X127587356Y-90822566D01*
X126885812Y-90121022D01*
X126871868Y-90113408D01*
X126870035Y-90113539D01*
X126863420Y-90117790D01*
X126157923Y-90823287D01*
X126151493Y-90835062D01*
X126167614Y-90855900D01*
X126193478Y-90922018D01*
X126179489Y-90991623D01*
X126130089Y-91042616D01*
X126067957Y-91059000D01*
X120882115Y-91059000D01*
X120813994Y-91038998D01*
X120767501Y-90985342D01*
X120757397Y-90915068D01*
X120785241Y-90852431D01*
X120894834Y-90720659D01*
X120898532Y-90716213D01*
X121004813Y-90526435D01*
X121006669Y-90520968D01*
X121006671Y-90520963D01*
X121072874Y-90325935D01*
X121072875Y-90325930D01*
X121074730Y-90320466D01*
X121105941Y-90105205D01*
X121107570Y-90043000D01*
X121087667Y-89826400D01*
X121076217Y-89785799D01*
X121033961Y-89635972D01*
X121028626Y-89617055D01*
X120932423Y-89421974D01*
X120854525Y-89317655D01*
X120805733Y-89252315D01*
X120805732Y-89252314D01*
X120802280Y-89247691D01*
X120798044Y-89243775D01*
X120646796Y-89103963D01*
X120646793Y-89103961D01*
X120642556Y-89100044D01*
X120458599Y-88983976D01*
X120256572Y-88903376D01*
X120043239Y-88860941D01*
X120037464Y-88860865D01*
X120037460Y-88860865D01*
X119928419Y-88859438D01*
X119825746Y-88858094D01*
X119820049Y-88859073D01*
X119820048Y-88859073D01*
X119617065Y-88893952D01*
X119617062Y-88893953D01*
X119611375Y-88894930D01*
X119407307Y-88970214D01*
X119286979Y-89041802D01*
X119266460Y-89054010D01*
X119220376Y-89081427D01*
X119056842Y-89224842D01*
X119053270Y-89229373D01*
X119018688Y-89273240D01*
X118960807Y-89314353D01*
X118889887Y-89317647D01*
X118828444Y-89282075D01*
X118818780Y-89270622D01*
X118805364Y-89252655D01*
X118797671Y-89244111D01*
X118646490Y-89104361D01*
X118637365Y-89097360D01*
X118463255Y-88987505D01*
X118453008Y-88982284D01*
X118261793Y-88905997D01*
X118250767Y-88902730D01*
X118190770Y-88890797D01*
X118177894Y-88891949D01*
X118173000Y-88907102D01*
X118173000Y-90171000D01*
X118152998Y-90239121D01*
X118099342Y-90285614D01*
X118047000Y-90297000D01*
X117791000Y-90297000D01*
X117722879Y-90276998D01*
X117676386Y-90223342D01*
X117665000Y-90171000D01*
X117665000Y-88904337D01*
X117661194Y-88891375D01*
X117646278Y-88889439D01*
X117617202Y-88894435D01*
X117606082Y-88897415D01*
X117412940Y-88968669D01*
X117402562Y-88973619D01*
X117225639Y-89078877D01*
X117216327Y-89085643D01*
X117061547Y-89221381D01*
X117053629Y-89229725D01*
X117019317Y-89273249D01*
X116961436Y-89314361D01*
X116890516Y-89317655D01*
X116829073Y-89282083D01*
X116819410Y-89270631D01*
X116805733Y-89252315D01*
X116805732Y-89252314D01*
X116802280Y-89247691D01*
X116798044Y-89243775D01*
X116646796Y-89103963D01*
X116646793Y-89103961D01*
X116642556Y-89100044D01*
X116458599Y-88983976D01*
X116256572Y-88903376D01*
X116043239Y-88860941D01*
X116037464Y-88860865D01*
X116037460Y-88860865D01*
X115928419Y-88859438D01*
X115825746Y-88858094D01*
X115820049Y-88859073D01*
X115820048Y-88859073D01*
X115617065Y-88893952D01*
X115617062Y-88893953D01*
X115611375Y-88894930D01*
X115407307Y-88970214D01*
X115286979Y-89041802D01*
X115266460Y-89054010D01*
X115220376Y-89081427D01*
X115216032Y-89085237D01*
X115198592Y-89100531D01*
X115134188Y-89130408D01*
X115063855Y-89120722D01*
X115014689Y-89081365D01*
X115009027Y-89073810D01*
X114957261Y-89004739D01*
X114840705Y-88917385D01*
X114704316Y-88866255D01*
X114642134Y-88859500D01*
X113195866Y-88859500D01*
X113133684Y-88866255D01*
X112997295Y-88917385D01*
X112880739Y-89004739D01*
X112793385Y-89121295D01*
X112742255Y-89257684D01*
X112735500Y-89319866D01*
X112735500Y-90283501D01*
X112715498Y-90351622D01*
X112661842Y-90398115D01*
X112609500Y-90409501D01*
X112053500Y-90409501D01*
X111985379Y-90389499D01*
X111938886Y-90335843D01*
X111927500Y-90283501D01*
X111927500Y-89901301D01*
X111950412Y-89828852D01*
X111981510Y-89784605D01*
X111985435Y-89779320D01*
X112019619Y-89735723D01*
X112024304Y-89729748D01*
X112027428Y-89722830D01*
X112029257Y-89719809D01*
X112036512Y-89707090D01*
X112038200Y-89703942D01*
X112042568Y-89697727D01*
X112065450Y-89639038D01*
X112067990Y-89632993D01*
X112093925Y-89575553D01*
X112095310Y-89568080D01*
X112096381Y-89564662D01*
X112100366Y-89550673D01*
X112101263Y-89547181D01*
X112104024Y-89540099D01*
X112112245Y-89477658D01*
X112113277Y-89471145D01*
X112123373Y-89416670D01*
X112123373Y-89416668D01*
X112124757Y-89409201D01*
X112122753Y-89374447D01*
X112138800Y-89305288D01*
X112159449Y-89278098D01*
X112434182Y-89003366D01*
X112742053Y-88695495D01*
X112748319Y-88689642D01*
X112785547Y-88657166D01*
X112791274Y-88652170D01*
X112827498Y-88600629D01*
X112831423Y-88595344D01*
X112865607Y-88551747D01*
X112870292Y-88545772D01*
X112873416Y-88538854D01*
X112875245Y-88535833D01*
X112882508Y-88523099D01*
X112884188Y-88519965D01*
X112888556Y-88513751D01*
X112891314Y-88506678D01*
X112892311Y-88504818D01*
X112942130Y-88454236D01*
X113011387Y-88438617D01*
X113035847Y-88443372D01*
X113035886Y-88443190D01*
X113042612Y-88444632D01*
X113049139Y-88446797D01*
X113055975Y-88447497D01*
X113055978Y-88447498D01*
X113099031Y-88451909D01*
X113153600Y-88457500D01*
X113904400Y-88457500D01*
X113907646Y-88457163D01*
X113907650Y-88457163D01*
X114003308Y-88447238D01*
X114003312Y-88447237D01*
X114010166Y-88446526D01*
X114016702Y-88444345D01*
X114016704Y-88444345D01*
X114148806Y-88400272D01*
X114177946Y-88390550D01*
X114328348Y-88297478D01*
X114453305Y-88172303D01*
X114455906Y-88168084D01*
X114513030Y-88127583D01*
X114583953Y-88124351D01*
X114645365Y-88159976D01*
X114651922Y-88167530D01*
X114655522Y-88173348D01*
X114780697Y-88298305D01*
X114786927Y-88302145D01*
X114786928Y-88302146D01*
X114924090Y-88386694D01*
X114931262Y-88391115D01*
X114995016Y-88412261D01*
X115092611Y-88444632D01*
X115092613Y-88444632D01*
X115099139Y-88446797D01*
X115105975Y-88447497D01*
X115105978Y-88447498D01*
X115149031Y-88451909D01*
X115203600Y-88457500D01*
X115954400Y-88457500D01*
X115957646Y-88457163D01*
X115957650Y-88457163D01*
X116053308Y-88447238D01*
X116053312Y-88447237D01*
X116060166Y-88446526D01*
X116066702Y-88444345D01*
X116066704Y-88444345D01*
X116198806Y-88400272D01*
X116227946Y-88390550D01*
X116378348Y-88297478D01*
X116503305Y-88172303D01*
X116510904Y-88159976D01*
X116526372Y-88134883D01*
X116579145Y-88087390D01*
X116633631Y-88075000D01*
X118559084Y-88075000D01*
X118627205Y-88095002D01*
X118634644Y-88100171D01*
X118715295Y-88160615D01*
X118851684Y-88211745D01*
X118913866Y-88218500D01*
X119635743Y-88218500D01*
X119687591Y-88229662D01*
X119701435Y-88235913D01*
X119708909Y-88237298D01*
X119712326Y-88238369D01*
X119726315Y-88242354D01*
X119729807Y-88243251D01*
X119736889Y-88246012D01*
X119744422Y-88247004D01*
X119744423Y-88247004D01*
X119799330Y-88254233D01*
X119805843Y-88255265D01*
X119860318Y-88265361D01*
X119860320Y-88265361D01*
X119867787Y-88266745D01*
X119875367Y-88266308D01*
X119875368Y-88266308D01*
X119929112Y-88263209D01*
X119936365Y-88263000D01*
X120242275Y-88263000D01*
X120310396Y-88283002D01*
X120331370Y-88299905D01*
X120945013Y-88913548D01*
X120950866Y-88919813D01*
X120988352Y-88962784D01*
X121016098Y-88982284D01*
X121039888Y-88999004D01*
X121045184Y-89002937D01*
X121088773Y-89037116D01*
X121088776Y-89037118D01*
X121094750Y-89041802D01*
X121101674Y-89044928D01*
X121104709Y-89046766D01*
X121117408Y-89054010D01*
X121120556Y-89055698D01*
X121126771Y-89060066D01*
X121185460Y-89082948D01*
X121191505Y-89085488D01*
X121248945Y-89111423D01*
X121256418Y-89112808D01*
X121259836Y-89113879D01*
X121273825Y-89117864D01*
X121277317Y-89118761D01*
X121284399Y-89121522D01*
X121291932Y-89122514D01*
X121291933Y-89122514D01*
X121346840Y-89129743D01*
X121353353Y-89130775D01*
X121407828Y-89140871D01*
X121407830Y-89140871D01*
X121415297Y-89142255D01*
X121422877Y-89141818D01*
X121422878Y-89141818D01*
X121476622Y-89138719D01*
X121483875Y-89138510D01*
X125518502Y-89138510D01*
X125586623Y-89158512D01*
X125633116Y-89212168D01*
X125643220Y-89282442D01*
X125638853Y-89299839D01*
X125639187Y-89299929D01*
X125581375Y-89515688D01*
X125579472Y-89526481D01*
X125560483Y-89743525D01*
X125560483Y-89754475D01*
X125579472Y-89971519D01*
X125581375Y-89982312D01*
X125637764Y-90192761D01*
X125641510Y-90203053D01*
X125733586Y-90400511D01*
X125739069Y-90410006D01*
X125775509Y-90462048D01*
X125785988Y-90470424D01*
X125799434Y-90463356D01*
X126783905Y-89478885D01*
X126846217Y-89444859D01*
X126917032Y-89449924D01*
X126962095Y-89478885D01*
X127947287Y-90464077D01*
X127959062Y-90470507D01*
X127971077Y-90461211D01*
X128006931Y-90410006D01*
X128012414Y-90400511D01*
X128104490Y-90203053D01*
X128108236Y-90192761D01*
X128164625Y-89982312D01*
X128166528Y-89971519D01*
X128185517Y-89754475D01*
X128185517Y-89743525D01*
X128166528Y-89526481D01*
X128164625Y-89515688D01*
X128108236Y-89305239D01*
X128104488Y-89294942D01*
X128078605Y-89239435D01*
X128067944Y-89169244D01*
X128096924Y-89104431D01*
X128148257Y-89068322D01*
X128160976Y-89063516D01*
X128167232Y-89059217D01*
X128170372Y-89057575D01*
X128183126Y-89050477D01*
X128186232Y-89048640D01*
X128193187Y-89045587D01*
X128199214Y-89040962D01*
X128199218Y-89040960D01*
X128243156Y-89007245D01*
X128248474Y-89003381D01*
X128300406Y-88967689D01*
X128341273Y-88921821D01*
X128346253Y-88916546D01*
X130141038Y-87121761D01*
X130147304Y-87115907D01*
X130184549Y-87083416D01*
X130190274Y-87078422D01*
X130226494Y-87026886D01*
X130230427Y-87021590D01*
X130264606Y-86978001D01*
X130264608Y-86977998D01*
X130269292Y-86972024D01*
X130272418Y-86965100D01*
X130274256Y-86962065D01*
X130281500Y-86949366D01*
X130283188Y-86946218D01*
X130287556Y-86940003D01*
X130310438Y-86881314D01*
X130312978Y-86875269D01*
X130338913Y-86817829D01*
X130340298Y-86810356D01*
X130341369Y-86806938D01*
X130345354Y-86792949D01*
X130346251Y-86789457D01*
X130349012Y-86782375D01*
X130355873Y-86730262D01*
X130357233Y-86719934D01*
X130358265Y-86713421D01*
X130368361Y-86658946D01*
X130368361Y-86658944D01*
X130369745Y-86651477D01*
X130368395Y-86628054D01*
X130366209Y-86590152D01*
X130366000Y-86582899D01*
X130366000Y-86270500D01*
X130386002Y-86202379D01*
X130439658Y-86155886D01*
X130492000Y-86144500D01*
X130642134Y-86144500D01*
X130704316Y-86137745D01*
X130840705Y-86086615D01*
X130957261Y-85999261D01*
X131044615Y-85882705D01*
X131095745Y-85746316D01*
X131102500Y-85684134D01*
X131102500Y-83987866D01*
X131095745Y-83925684D01*
X131044615Y-83789295D01*
X130957261Y-83672739D01*
X130840705Y-83585385D01*
X130704316Y-83534255D01*
X130705046Y-83532309D01*
X130652795Y-83502455D01*
X130619979Y-83439497D01*
X130626409Y-83368793D01*
X130654498Y-83326000D01*
X130800198Y-83180300D01*
X130806394Y-83171452D01*
X130903706Y-83032475D01*
X130931523Y-82992749D01*
X130933846Y-82987767D01*
X130933849Y-82987762D01*
X131025961Y-82790225D01*
X131025961Y-82790224D01*
X131028284Y-82785243D01*
X131034415Y-82762364D01*
X131086119Y-82569402D01*
X131086119Y-82569400D01*
X131087543Y-82564087D01*
X131107498Y-82336000D01*
X131087543Y-82107913D01*
X131066970Y-82031134D01*
X131029707Y-81892067D01*
X131029706Y-81892065D01*
X131028284Y-81886757D01*
X130946704Y-81711806D01*
X130936043Y-81641616D01*
X130965023Y-81576804D01*
X131024443Y-81537947D01*
X131071095Y-81532971D01*
X131306550Y-81552086D01*
G37*
%TD.AperFunction*%
%TA.AperFunction,Conductor*%
G36*
X125981317Y-83037360D02*
G01*
X125981320Y-83037360D01*
X125988786Y-83038744D01*
X125996366Y-83038307D01*
X125996367Y-83038307D01*
X126050094Y-83035209D01*
X126057347Y-83035000D01*
X128620470Y-83035000D01*
X128688591Y-83055002D01*
X128723683Y-83088729D01*
X128784643Y-83175789D01*
X128787802Y-83180300D01*
X128933502Y-83326000D01*
X128967528Y-83388312D01*
X128962463Y-83459127D01*
X128919916Y-83515963D01*
X128883263Y-83533132D01*
X128883684Y-83534255D01*
X128747295Y-83585385D01*
X128630739Y-83672739D01*
X128543385Y-83789295D01*
X128492255Y-83925684D01*
X128485500Y-83987866D01*
X128485500Y-85684134D01*
X128492255Y-85746316D01*
X128543385Y-85882705D01*
X128630739Y-85999261D01*
X128747295Y-86086615D01*
X128755703Y-86089767D01*
X128883684Y-86137745D01*
X128882705Y-86140356D01*
X128932781Y-86168955D01*
X128965610Y-86231905D01*
X128968000Y-86256332D01*
X128968000Y-86265537D01*
X128947998Y-86333658D01*
X128931096Y-86354632D01*
X128580228Y-86705501D01*
X128396596Y-86889133D01*
X128334283Y-86923158D01*
X128263468Y-86918094D01*
X128206632Y-86875547D01*
X128181821Y-86809027D01*
X128181500Y-86800038D01*
X128181500Y-86400866D01*
X128174745Y-86338684D01*
X128123615Y-86202295D01*
X128036261Y-86085739D01*
X127919705Y-85998385D01*
X127783316Y-85947255D01*
X127721134Y-85940500D01*
X126024866Y-85940500D01*
X125962684Y-85947255D01*
X125826295Y-85998385D01*
X125709739Y-86085739D01*
X125622385Y-86202295D01*
X125571255Y-86338684D01*
X125564500Y-86400866D01*
X125564500Y-86579501D01*
X125544498Y-86647622D01*
X125490842Y-86694115D01*
X125438500Y-86705501D01*
X124496500Y-86705501D01*
X124428379Y-86685499D01*
X124381886Y-86631843D01*
X124370500Y-86579501D01*
X124370500Y-85911866D01*
X124363745Y-85849684D01*
X124312615Y-85713295D01*
X124225261Y-85596739D01*
X124108705Y-85509385D01*
X123972316Y-85458255D01*
X123910134Y-85451500D01*
X123498000Y-85451500D01*
X123429879Y-85431498D01*
X123383386Y-85377842D01*
X123372000Y-85325500D01*
X123372000Y-84619779D01*
X123392002Y-84551658D01*
X123431696Y-84512636D01*
X123466119Y-84491334D01*
X123466127Y-84491328D01*
X123472348Y-84487478D01*
X123597305Y-84362303D01*
X123600102Y-84357765D01*
X123657353Y-84317176D01*
X123728276Y-84313946D01*
X123789687Y-84349572D01*
X123797062Y-84358068D01*
X123805098Y-84368207D01*
X123919829Y-84482739D01*
X123931240Y-84491751D01*
X124069243Y-84576816D01*
X124082424Y-84582963D01*
X124236710Y-84634138D01*
X124250086Y-84637005D01*
X124344438Y-84646672D01*
X124350854Y-84647000D01*
X124450885Y-84647000D01*
X124466124Y-84642525D01*
X124467329Y-84641135D01*
X124469000Y-84633452D01*
X124469000Y-84628884D01*
X124977000Y-84628884D01*
X124981475Y-84644123D01*
X124982865Y-84645328D01*
X124990548Y-84646999D01*
X125095095Y-84646999D01*
X125101614Y-84646662D01*
X125197206Y-84636743D01*
X125210600Y-84633851D01*
X125364784Y-84582412D01*
X125377962Y-84576239D01*
X125515807Y-84490937D01*
X125527208Y-84481901D01*
X125641739Y-84367171D01*
X125650751Y-84355760D01*
X125735816Y-84217757D01*
X125741963Y-84204576D01*
X125793138Y-84050290D01*
X125796005Y-84036914D01*
X125805672Y-83942562D01*
X125806000Y-83936146D01*
X125806000Y-83711115D01*
X125801525Y-83695876D01*
X125800135Y-83694671D01*
X125792452Y-83693000D01*
X124995115Y-83693000D01*
X124979876Y-83697475D01*
X124978671Y-83698865D01*
X124977000Y-83706548D01*
X124977000Y-84628884D01*
X124469000Y-84628884D01*
X124469000Y-83311000D01*
X124489002Y-83242879D01*
X124542658Y-83196386D01*
X124595000Y-83185000D01*
X125787884Y-83185000D01*
X125803123Y-83180525D01*
X125804328Y-83179135D01*
X125805999Y-83171452D01*
X125805999Y-83156365D01*
X125826001Y-83088244D01*
X125879657Y-83041751D01*
X125954960Y-83032475D01*
X125981317Y-83037360D01*
G37*
%TD.AperFunction*%
%TA.AperFunction,Conductor*%
G36*
X118165072Y-81555629D02*
G01*
X118221908Y-81598176D01*
X118243957Y-81645983D01*
X118285346Y-81829642D01*
X118287288Y-81834424D01*
X118287289Y-81834428D01*
X118369809Y-82037650D01*
X118372484Y-82044237D01*
X118493501Y-82241719D01*
X118645147Y-82416784D01*
X118823349Y-82564730D01*
X119023322Y-82681584D01*
X119239694Y-82764209D01*
X119244760Y-82765240D01*
X119244761Y-82765240D01*
X119297846Y-82776040D01*
X119466656Y-82810385D01*
X119597324Y-82815176D01*
X119692949Y-82818683D01*
X119692953Y-82818683D01*
X119698113Y-82818872D01*
X119768421Y-82809865D01*
X119838530Y-82821049D01*
X119891464Y-82868362D01*
X119910416Y-82936783D01*
X119889368Y-83004587D01*
X119873526Y-83023939D01*
X119696463Y-83201002D01*
X119690198Y-83206855D01*
X119647227Y-83244341D01*
X119642860Y-83250555D01*
X119611007Y-83295877D01*
X119607074Y-83301173D01*
X119572895Y-83344762D01*
X119572893Y-83344765D01*
X119568209Y-83350739D01*
X119565083Y-83357663D01*
X119563245Y-83360698D01*
X119556001Y-83373397D01*
X119554313Y-83376545D01*
X119549945Y-83382760D01*
X119527825Y-83439497D01*
X119527068Y-83441438D01*
X119524523Y-83447494D01*
X119498588Y-83504934D01*
X119497203Y-83512407D01*
X119496132Y-83515825D01*
X119492147Y-83529814D01*
X119491250Y-83533306D01*
X119488489Y-83540388D01*
X119487497Y-83547921D01*
X119487497Y-83547922D01*
X119480268Y-83602829D01*
X119479236Y-83609342D01*
X119478175Y-83615069D01*
X119467756Y-83671286D01*
X119468193Y-83678866D01*
X119468193Y-83678867D01*
X119471292Y-83732611D01*
X119471501Y-83739864D01*
X119471501Y-84375500D01*
X119451499Y-84443621D01*
X119397843Y-84490114D01*
X119345501Y-84501500D01*
X118913866Y-84501500D01*
X118851684Y-84508255D01*
X118715295Y-84559385D01*
X118598739Y-84646739D01*
X118593358Y-84653919D01*
X118516771Y-84756109D01*
X118511385Y-84763295D01*
X118509617Y-84768012D01*
X118460762Y-84816758D01*
X118391371Y-84831772D01*
X118324879Y-84806887D01*
X118282395Y-84750004D01*
X118274500Y-84706103D01*
X118274500Y-84006866D01*
X118267745Y-83944684D01*
X118216615Y-83808295D01*
X118129261Y-83691739D01*
X118012705Y-83604385D01*
X117876316Y-83553255D01*
X117814134Y-83546500D01*
X116948225Y-83546500D01*
X116880104Y-83526498D01*
X116859130Y-83509595D01*
X115797630Y-82448095D01*
X115763604Y-82385783D01*
X115768669Y-82314968D01*
X115811216Y-82258132D01*
X115877736Y-82233321D01*
X115886725Y-82233000D01*
X117065401Y-82233000D01*
X117073971Y-82233292D01*
X117123277Y-82236654D01*
X117123281Y-82236654D01*
X117130852Y-82237170D01*
X117138328Y-82235865D01*
X117138332Y-82235865D01*
X117192924Y-82226337D01*
X117199449Y-82225374D01*
X117254418Y-82218722D01*
X117254420Y-82218721D01*
X117261960Y-82217809D01*
X117269062Y-82215125D01*
X117272500Y-82214281D01*
X117286623Y-82210417D01*
X117290034Y-82209387D01*
X117297517Y-82208081D01*
X117355197Y-82182761D01*
X117361304Y-82180270D01*
X117413117Y-82160691D01*
X117413118Y-82160690D01*
X117420222Y-82158006D01*
X117426477Y-82153707D01*
X117429618Y-82152065D01*
X117442372Y-82144967D01*
X117445478Y-82143130D01*
X117452433Y-82140077D01*
X117458460Y-82135452D01*
X117458464Y-82135450D01*
X117502402Y-82101735D01*
X117507720Y-82097871D01*
X117559652Y-82062179D01*
X117600519Y-82016311D01*
X117605499Y-82011036D01*
X118031945Y-81584590D01*
X118094257Y-81550564D01*
X118165072Y-81555629D01*
G37*
%TD.AperFunction*%
%TD*%
M02*
