%TF.GenerationSoftware,KiCad,Pcbnew,(5.99.0-2965-g3673c2369)*%
%TF.CreationDate,2020-08-27T12:58:16+03:00*%
%TF.ProjectId,aceitera,61636569-7465-4726-912e-6b696361645f,rev?*%
%TF.SameCoordinates,Original*%
%TF.FileFunction,Copper,L1,Top*%
%TF.FilePolarity,Positive*%
%FSLAX46Y46*%
G04 Gerber Fmt 4.6, Leading zero omitted, Abs format (unit mm)*
G04 Created by KiCad (PCBNEW (5.99.0-2965-g3673c2369)) date 2020-08-27 12:58:16*
%MOMM*%
%LPD*%
G01*
G04 APERTURE LIST*
%TA.AperFunction,ComponentPad*%
%ADD10O,1.350000X1.350000*%
%TD*%
%TA.AperFunction,ComponentPad*%
%ADD11R,1.350000X1.350000*%
%TD*%
%TA.AperFunction,ComponentPad*%
%ADD12C,1.600000*%
%TD*%
%TA.AperFunction,ComponentPad*%
%ADD13R,1.600000X1.600000*%
%TD*%
%TA.AperFunction,SMDPad,CuDef*%
%ADD14R,1.900000X0.800000*%
%TD*%
%TA.AperFunction,ComponentPad*%
%ADD15C,1.800000*%
%TD*%
%TA.AperFunction,ComponentPad*%
%ADD16R,1.800000X1.800000*%
%TD*%
%TA.AperFunction,ViaPad*%
%ADD17C,0.800000*%
%TD*%
%TA.AperFunction,Conductor*%
%ADD18C,0.381000*%
%TD*%
G04 APERTURE END LIST*
D10*
%TO.P,SW2,3,C*%
%TO.N,Net-(C7-Pad1)*%
X113728000Y-76073000D03*
%TO.P,SW2,2,B*%
%TO.N,IN*%
X111728000Y-76073000D03*
D11*
%TO.P,SW2,1,A*%
%TO.N,Net-(C1-Pad1)*%
X109728000Y-76073000D03*
%TD*%
D10*
%TO.P,SW1,3,3*%
%TO.N,Net-(D1-Pad1)*%
X124142000Y-76073000D03*
%TO.P,SW1,2,2*%
%TO.N,+9V*%
X122142000Y-76073000D03*
D11*
%TO.P,SW1,1,1*%
%TO.N,VCC*%
X120142000Y-76073000D03*
%TD*%
D10*
%TO.P,RV1,3,3*%
%TO.N,GND*%
X106744000Y-90043000D03*
%TO.P,RV1,2,2*%
%TO.N,OUT*%
X108744000Y-90043000D03*
D11*
%TO.P,RV1,1,1*%
%TO.N,Net-(C3-Pad2)*%
X110744000Y-90043000D03*
%TD*%
D10*
%TO.P,J1,4,Pin_4*%
%TO.N,OUT*%
X119919000Y-90043000D03*
%TO.P,J1,3,Pin_3*%
%TO.N,GND*%
X117919000Y-90043000D03*
%TO.P,J1,2,Pin_2*%
%TO.N,+9V*%
X115919000Y-90043000D03*
D11*
%TO.P,J1,1,Pin_1*%
%TO.N,IN*%
X113919000Y-90043000D03*
%TD*%
%TO.P,C5,2*%
%TO.N,GND*%
%TA.AperFunction,SMDPad,CuDef*%
G36*
G01*
X109151000Y-83116000D02*
X109151000Y-84016000D01*
G75*
G02*
X108901000Y-84266000I-250000J0D01*
G01*
X108251000Y-84266000D01*
G75*
G02*
X108001000Y-84016000I0J250000D01*
G01*
X108001000Y-83116000D01*
G75*
G02*
X108251000Y-82866000I250000J0D01*
G01*
X108901000Y-82866000D01*
G75*
G02*
X109151000Y-83116000I0J-250000D01*
G01*
G37*
%TD.AperFunction*%
%TO.P,C5,1*%
%TO.N,Net-(C1-Pad2)*%
%TA.AperFunction,SMDPad,CuDef*%
G36*
G01*
X111201000Y-83116000D02*
X111201000Y-84016000D01*
G75*
G02*
X110951000Y-84266000I-250000J0D01*
G01*
X110301000Y-84266000D01*
G75*
G02*
X110051000Y-84016000I0J250000D01*
G01*
X110051000Y-83116000D01*
G75*
G02*
X110301000Y-82866000I250000J0D01*
G01*
X110951000Y-82866000D01*
G75*
G02*
X111201000Y-83116000I0J-250000D01*
G01*
G37*
%TD.AperFunction*%
%TD*%
D12*
%TO.P,C4,2*%
%TO.N,GND*%
X126873000Y-89749000D03*
D13*
%TO.P,C4,1*%
%TO.N,Net-(C4-Pad1)*%
X126873000Y-87249000D03*
%TD*%
D14*
%TO.P,Q2,3,G*%
%TO.N,Net-(C1-Pad2)*%
X116816000Y-84455000D03*
%TO.P,Q2,2,S*%
%TO.N,Net-(C6-Pad1)*%
X113816000Y-85405000D03*
%TO.P,Q2,1,D*%
%TO.N,Net-(C2-Pad1)*%
X113816000Y-83505000D03*
%TD*%
%TO.P,R3,2*%
%TO.N,GND*%
%TA.AperFunction,SMDPad,CuDef*%
G36*
G01*
X124148000Y-83889000D02*
X124148000Y-82989000D01*
G75*
G02*
X124398000Y-82739000I250000J0D01*
G01*
X125048000Y-82739000D01*
G75*
G02*
X125298000Y-82989000I0J-250000D01*
G01*
X125298000Y-83889000D01*
G75*
G02*
X125048000Y-84139000I-250000J0D01*
G01*
X124398000Y-84139000D01*
G75*
G02*
X124148000Y-83889000I0J250000D01*
G01*
G37*
%TD.AperFunction*%
%TO.P,R3,1*%
%TO.N,Net-(C2-Pad2)*%
%TA.AperFunction,SMDPad,CuDef*%
G36*
G01*
X122098000Y-83889000D02*
X122098000Y-82989000D01*
G75*
G02*
X122348000Y-82739000I250000J0D01*
G01*
X122998000Y-82739000D01*
G75*
G02*
X123248000Y-82989000I0J-250000D01*
G01*
X123248000Y-83889000D01*
G75*
G02*
X122998000Y-84139000I-250000J0D01*
G01*
X122348000Y-84139000D01*
G75*
G02*
X122098000Y-83889000I0J250000D01*
G01*
G37*
%TD.AperFunction*%
%TD*%
%TO.P,R4,2*%
%TO.N,Net-(C4-Pad1)*%
%TA.AperFunction,SMDPad,CuDef*%
G36*
G01*
X123629000Y-78925000D02*
X123629000Y-79825000D01*
G75*
G02*
X123379000Y-80075000I-250000J0D01*
G01*
X122729000Y-80075000D01*
G75*
G02*
X122479000Y-79825000I0J250000D01*
G01*
X122479000Y-78925000D01*
G75*
G02*
X122729000Y-78675000I250000J0D01*
G01*
X123379000Y-78675000D01*
G75*
G02*
X123629000Y-78925000I0J-250000D01*
G01*
G37*
%TD.AperFunction*%
%TO.P,R4,1*%
%TO.N,VCC*%
%TA.AperFunction,SMDPad,CuDef*%
G36*
G01*
X125679000Y-78925000D02*
X125679000Y-79825000D01*
G75*
G02*
X125429000Y-80075000I-250000J0D01*
G01*
X124779000Y-80075000D01*
G75*
G02*
X124529000Y-79825000I0J250000D01*
G01*
X124529000Y-78925000D01*
G75*
G02*
X124779000Y-78675000I250000J0D01*
G01*
X125429000Y-78675000D01*
G75*
G02*
X125679000Y-78925000I0J-250000D01*
G01*
G37*
%TD.AperFunction*%
%TD*%
%TO.P,R2,2*%
%TO.N,Net-(C2-Pad2)*%
%TA.AperFunction,SMDPad,CuDef*%
G36*
G01*
X124529000Y-81857000D02*
X124529000Y-80957000D01*
G75*
G02*
X124779000Y-80707000I250000J0D01*
G01*
X125429000Y-80707000D01*
G75*
G02*
X125679000Y-80957000I0J-250000D01*
G01*
X125679000Y-81857000D01*
G75*
G02*
X125429000Y-82107000I-250000J0D01*
G01*
X124779000Y-82107000D01*
G75*
G02*
X124529000Y-81857000I0J250000D01*
G01*
G37*
%TD.AperFunction*%
%TO.P,R2,1*%
%TO.N,Net-(C4-Pad1)*%
%TA.AperFunction,SMDPad,CuDef*%
G36*
G01*
X122479000Y-81857000D02*
X122479000Y-80957000D01*
G75*
G02*
X122729000Y-80707000I250000J0D01*
G01*
X123379000Y-80707000D01*
G75*
G02*
X123629000Y-80957000I0J-250000D01*
G01*
X123629000Y-81857000D01*
G75*
G02*
X123379000Y-82107000I-250000J0D01*
G01*
X122729000Y-82107000D01*
G75*
G02*
X122479000Y-81857000I0J250000D01*
G01*
G37*
%TD.AperFunction*%
%TD*%
D12*
%TO.P,C6,2*%
%TO.N,GND*%
X104140000Y-84749000D03*
D13*
%TO.P,C6,1*%
%TO.N,Net-(C6-Pad1)*%
X104140000Y-87249000D03*
%TD*%
D12*
%TO.P,C2,2*%
%TO.N,Net-(C2-Pad2)*%
X129794000Y-82336000D03*
D13*
%TO.P,C2,1*%
%TO.N,Net-(C2-Pad1)*%
X129794000Y-84836000D03*
%TD*%
%TO.P,R1,2*%
%TO.N,GND*%
%TA.AperFunction,SMDPad,CuDef*%
G36*
G01*
X109786000Y-85021000D02*
X109786000Y-85921000D01*
G75*
G02*
X109536000Y-86171000I-250000J0D01*
G01*
X108886000Y-86171000D01*
G75*
G02*
X108636000Y-85921000I0J250000D01*
G01*
X108636000Y-85021000D01*
G75*
G02*
X108886000Y-84771000I250000J0D01*
G01*
X109536000Y-84771000D01*
G75*
G02*
X109786000Y-85021000I0J-250000D01*
G01*
G37*
%TD.AperFunction*%
%TO.P,R1,1*%
%TO.N,Net-(C1-Pad2)*%
%TA.AperFunction,SMDPad,CuDef*%
G36*
G01*
X111836000Y-85021000D02*
X111836000Y-85921000D01*
G75*
G02*
X111586000Y-86171000I-250000J0D01*
G01*
X110936000Y-86171000D01*
G75*
G02*
X110686000Y-85921000I0J250000D01*
G01*
X110686000Y-85021000D01*
G75*
G02*
X110936000Y-84771000I250000J0D01*
G01*
X111586000Y-84771000D01*
G75*
G02*
X111836000Y-85021000I0J-250000D01*
G01*
G37*
%TD.AperFunction*%
%TD*%
D14*
%TO.P,Q1,3,G*%
%TO.N,Net-(C2-Pad2)*%
X122912000Y-86360000D03*
%TO.P,Q1,2,S*%
%TO.N,Net-(C2-Pad1)*%
X119912000Y-87310000D03*
%TO.P,Q1,1,D*%
%TO.N,Net-(C4-Pad1)*%
X119912000Y-85410000D03*
%TD*%
D15*
%TO.P,D2,2,A*%
%TO.N,Net-(D1-Pad1)*%
X114300000Y-81407000D03*
D16*
%TO.P,D2,1,K*%
%TO.N,VCC*%
X114300000Y-78867000D03*
%TD*%
%TO.P,C7,2*%
%TO.N,Net-(C1-Pad2)*%
%TA.AperFunction,SMDPad,CuDef*%
G36*
G01*
X109151000Y-81084000D02*
X109151000Y-81984000D01*
G75*
G02*
X108901000Y-82234000I-250000J0D01*
G01*
X108251000Y-82234000D01*
G75*
G02*
X108001000Y-81984000I0J250000D01*
G01*
X108001000Y-81084000D01*
G75*
G02*
X108251000Y-80834000I250000J0D01*
G01*
X108901000Y-80834000D01*
G75*
G02*
X109151000Y-81084000I0J-250000D01*
G01*
G37*
%TD.AperFunction*%
%TO.P,C7,1*%
%TO.N,Net-(C7-Pad1)*%
%TA.AperFunction,SMDPad,CuDef*%
G36*
G01*
X111201000Y-81084000D02*
X111201000Y-81984000D01*
G75*
G02*
X110951000Y-82234000I-250000J0D01*
G01*
X110301000Y-82234000D01*
G75*
G02*
X110051000Y-81984000I0J250000D01*
G01*
X110051000Y-81084000D01*
G75*
G02*
X110301000Y-80834000I250000J0D01*
G01*
X110951000Y-80834000D01*
G75*
G02*
X111201000Y-81084000I0J-250000D01*
G01*
G37*
%TD.AperFunction*%
%TD*%
%TO.P,C1,2*%
%TO.N,Net-(C1-Pad2)*%
%TA.AperFunction,SMDPad,CuDef*%
G36*
G01*
X110051000Y-79952000D02*
X110051000Y-79052000D01*
G75*
G02*
X110301000Y-78802000I250000J0D01*
G01*
X110951000Y-78802000D01*
G75*
G02*
X111201000Y-79052000I0J-250000D01*
G01*
X111201000Y-79952000D01*
G75*
G02*
X110951000Y-80202000I-250000J0D01*
G01*
X110301000Y-80202000D01*
G75*
G02*
X110051000Y-79952000I0J250000D01*
G01*
G37*
%TD.AperFunction*%
%TO.P,C1,1*%
%TO.N,Net-(C1-Pad1)*%
%TA.AperFunction,SMDPad,CuDef*%
G36*
G01*
X108001000Y-79952000D02*
X108001000Y-79052000D01*
G75*
G02*
X108251000Y-78802000I250000J0D01*
G01*
X108901000Y-78802000D01*
G75*
G02*
X109151000Y-79052000I0J-250000D01*
G01*
X109151000Y-79952000D01*
G75*
G02*
X108901000Y-80202000I-250000J0D01*
G01*
X108251000Y-80202000D01*
G75*
G02*
X108001000Y-79952000I0J250000D01*
G01*
G37*
%TD.AperFunction*%
%TD*%
%TO.P,R5,2*%
%TO.N,GND*%
%TA.AperFunction,SMDPad,CuDef*%
G36*
G01*
X109786000Y-87053000D02*
X109786000Y-87953000D01*
G75*
G02*
X109536000Y-88203000I-250000J0D01*
G01*
X108886000Y-88203000D01*
G75*
G02*
X108636000Y-87953000I0J250000D01*
G01*
X108636000Y-87053000D01*
G75*
G02*
X108886000Y-86803000I250000J0D01*
G01*
X109536000Y-86803000D01*
G75*
G02*
X109786000Y-87053000I0J-250000D01*
G01*
G37*
%TD.AperFunction*%
%TO.P,R5,1*%
%TO.N,Net-(C6-Pad1)*%
%TA.AperFunction,SMDPad,CuDef*%
G36*
G01*
X111836000Y-87053000D02*
X111836000Y-87953000D01*
G75*
G02*
X111586000Y-88203000I-250000J0D01*
G01*
X110936000Y-88203000D01*
G75*
G02*
X110686000Y-87953000I0J250000D01*
G01*
X110686000Y-87053000D01*
G75*
G02*
X110936000Y-86803000I250000J0D01*
G01*
X111586000Y-86803000D01*
G75*
G02*
X111836000Y-87053000I0J-250000D01*
G01*
G37*
%TD.AperFunction*%
%TD*%
D15*
%TO.P,D1,2,A*%
%TO.N,+9V*%
X119634000Y-81407000D03*
D16*
%TO.P,D1,1,K*%
%TO.N,Net-(D1-Pad1)*%
X119634000Y-78867000D03*
%TD*%
%TO.P,C3,2*%
%TO.N,Net-(C3-Pad2)*%
%TA.AperFunction,SMDPad,CuDef*%
G36*
G01*
X114104000Y-86799000D02*
X114104000Y-87699000D01*
G75*
G02*
X113854000Y-87949000I-250000J0D01*
G01*
X113204000Y-87949000D01*
G75*
G02*
X112954000Y-87699000I0J250000D01*
G01*
X112954000Y-86799000D01*
G75*
G02*
X113204000Y-86549000I250000J0D01*
G01*
X113854000Y-86549000D01*
G75*
G02*
X114104000Y-86799000I0J-250000D01*
G01*
G37*
%TD.AperFunction*%
%TO.P,C3,1*%
%TO.N,Net-(C2-Pad1)*%
%TA.AperFunction,SMDPad,CuDef*%
G36*
G01*
X116154000Y-86799000D02*
X116154000Y-87699000D01*
G75*
G02*
X115904000Y-87949000I-250000J0D01*
G01*
X115254000Y-87949000D01*
G75*
G02*
X115004000Y-87699000I0J250000D01*
G01*
X115004000Y-86799000D01*
G75*
G02*
X115254000Y-86549000I250000J0D01*
G01*
X115904000Y-86549000D01*
G75*
G02*
X116154000Y-86799000I0J-250000D01*
G01*
G37*
%TD.AperFunction*%
%TD*%
D17*
%TO.N,GND*%
X126492000Y-84963000D03*
X112395000Y-90043000D03*
X118999000Y-83820000D03*
X116586000Y-82677000D03*
%TD*%
D18*
%TO.N,Net-(C1-Pad2)*%
X110626000Y-83566000D02*
X111477501Y-82714499D01*
X111477501Y-82714499D02*
X115075499Y-82714499D01*
X115075499Y-82714499D02*
X116816000Y-84455000D01*
X108576000Y-81534000D02*
X108594000Y-81534000D01*
X108594000Y-81534000D02*
X110626000Y-83566000D01*
X108594000Y-81534000D02*
X110626000Y-79502000D01*
X110626000Y-83566000D02*
X110626000Y-84963000D01*
X110617000Y-83557000D02*
X110626000Y-83566000D01*
X110626000Y-84963000D02*
X111261000Y-85598000D01*
%TO.N,Net-(C1-Pad1)*%
X108576000Y-79502000D02*
X108576000Y-77225000D01*
X108576000Y-77225000D02*
X109728000Y-76073000D01*
%TO.N,Net-(C2-Pad2)*%
X129667000Y-82336000D02*
X126033000Y-82336000D01*
X122673000Y-83439000D02*
X123037988Y-83439000D01*
X125069988Y-81407000D02*
X125104000Y-81407000D01*
X123037988Y-83439000D02*
X125069988Y-81407000D01*
X122673000Y-83439000D02*
X122673000Y-86375000D01*
X122673000Y-86375000D02*
X122912000Y-86614000D01*
X126033000Y-82336000D02*
X125104000Y-81407000D01*
%TO.N,Net-(C2-Pad1)*%
X115475499Y-87272499D02*
X115475499Y-84741499D01*
X115579000Y-87376000D02*
X115475499Y-87272499D01*
X122634490Y-88439510D02*
X121459510Y-88439510D01*
X127834754Y-88439510D02*
X129667000Y-86607264D01*
X121459510Y-88439510D02*
X120584000Y-87564000D01*
X120584000Y-87564000D02*
X119912000Y-87564000D01*
X122634490Y-88439510D02*
X127834754Y-88439510D01*
X119724000Y-87376000D02*
X119912000Y-87564000D01*
X119851000Y-87503000D02*
X119912000Y-87564000D01*
X115579000Y-87376000D02*
X119724000Y-87376000D01*
X115475499Y-84741499D02*
X114366000Y-83632000D01*
X114366000Y-83632000D02*
X113816000Y-83632000D01*
X129667000Y-86607264D02*
X129667000Y-84836000D01*
%TO.N,Net-(C3-Pad2)*%
X111422012Y-89027000D02*
X111422012Y-89364988D01*
X112649000Y-87376000D02*
X112268000Y-87757000D01*
X112268000Y-88181012D02*
X111422012Y-89027000D01*
X113529000Y-87376000D02*
X112649000Y-87376000D01*
X111422012Y-89364988D02*
X110744000Y-90043000D01*
X112268000Y-87757000D02*
X112268000Y-88181012D01*
%TO.N,Net-(C4-Pad1)*%
X126717499Y-87404501D02*
X121649599Y-87404501D01*
X120170501Y-83715499D02*
X122479000Y-81407000D01*
X123054000Y-81407000D02*
X123054000Y-79375000D01*
X121649599Y-87404501D02*
X121571499Y-87326401D01*
X126873000Y-87249000D02*
X126717499Y-87404501D01*
X119912000Y-85664000D02*
X120170501Y-85405499D01*
X121571499Y-87326401D02*
X121571499Y-86773499D01*
X120462000Y-85664000D02*
X119912000Y-85664000D01*
X122479000Y-81407000D02*
X123054000Y-81407000D01*
X121571499Y-86773499D02*
X120462000Y-85664000D01*
X120170501Y-85405499D02*
X120170501Y-83715499D01*
%TO.N,Net-(C6-Pad1)*%
X113232000Y-85532000D02*
X113816000Y-85532000D01*
X110170490Y-88593510D02*
X111261000Y-87503000D01*
X104140000Y-87249000D02*
X105484510Y-88593510D01*
X105484510Y-88593510D02*
X110170490Y-88593510D01*
X111261000Y-87503000D02*
X113232000Y-85532000D01*
%TO.N,Net-(C7-Pad1)*%
X110626000Y-81534000D02*
X111591510Y-80568490D01*
X113728000Y-77027594D02*
X113728000Y-76073000D01*
X111591510Y-79164084D02*
X113728000Y-77027594D01*
X111591510Y-80568490D02*
X111591510Y-79164084D01*
%TO.N,Net-(D1-Pad1)*%
X119634000Y-78994000D02*
X120142000Y-78994000D01*
X119634000Y-78994000D02*
X121348000Y-78994000D01*
X114300000Y-81534000D02*
X117094000Y-81534000D01*
X121348000Y-78994000D02*
X124269000Y-76073000D01*
X117094000Y-81534000D02*
X119634000Y-78994000D01*
%TO.N,VCC*%
X125104000Y-79375000D02*
X125207501Y-79271499D01*
X114300000Y-78994000D02*
X117221000Y-76073000D01*
X124653441Y-75007499D02*
X123620501Y-75007499D01*
X117221000Y-76073000D02*
X120269000Y-76073000D01*
X120269000Y-76073000D02*
X121334501Y-75007499D01*
X121334501Y-75007499D02*
X123620501Y-75007499D01*
X125207501Y-75561559D02*
X124653441Y-75007499D01*
X125207501Y-79271499D02*
X125207501Y-75561559D01*
%TO.N,OUT*%
X109809501Y-91108501D02*
X118853499Y-91108501D01*
X108744000Y-90043000D02*
X109809501Y-91108501D01*
X118853499Y-91108501D02*
X119919000Y-90043000D01*
%TD*%
%TA.AperFunction,Conductor*%
%TO.N,GND*%
G36*
X131438923Y-81565400D02*
G01*
X131442789Y-81565203D01*
X131469971Y-81566764D01*
X131473793Y-81567403D01*
X131480046Y-81567510D01*
X131480152Y-81567511D01*
X131828401Y-81571382D01*
X131896296Y-81592140D01*
X131942189Y-81646309D01*
X131953001Y-81697374D01*
X131953000Y-90933000D01*
X131932998Y-91001121D01*
X131879342Y-91047614D01*
X131827000Y-91059000D01*
X127690250Y-91059000D01*
X127622129Y-91038998D01*
X127575636Y-90985342D01*
X127565532Y-90915068D01*
X127595026Y-90850488D01*
X127601894Y-90844817D01*
X127602791Y-90838003D01*
X126873000Y-90108210D01*
X126143209Y-90838003D01*
X126144970Y-90851380D01*
X126167743Y-90875264D01*
X126181179Y-90944977D01*
X126154793Y-91010888D01*
X126096960Y-91052070D01*
X126055750Y-91059000D01*
X120880324Y-91059000D01*
X120812203Y-91038998D01*
X120765710Y-90985342D01*
X120755606Y-90915068D01*
X120791229Y-90843905D01*
X120832429Y-90802705D01*
X120832435Y-90802698D01*
X120955585Y-90623515D01*
X121044016Y-90424892D01*
X121094773Y-90213477D01*
X121102084Y-89934293D01*
X121062462Y-89720512D01*
X121062461Y-89720507D01*
X120984548Y-89517537D01*
X120984542Y-89517524D01*
X120870946Y-89332153D01*
X120870940Y-89332145D01*
X120725461Y-89170575D01*
X120552969Y-89038218D01*
X120359241Y-88939509D01*
X120150784Y-88877761D01*
X120150783Y-88877760D01*
X119934553Y-88855034D01*
X119717794Y-88872093D01*
X119507788Y-88928365D01*
X119311546Y-89021969D01*
X119135652Y-89149763D01*
X119009383Y-89282823D01*
X118947983Y-89318467D01*
X118877059Y-89315258D01*
X118824350Y-89280401D01*
X118725461Y-89170575D01*
X118552969Y-89038218D01*
X118359241Y-88939509D01*
X118173000Y-88884342D01*
X118172999Y-90171000D01*
X118152997Y-90239121D01*
X118099341Y-90285614D01*
X118046999Y-90297000D01*
X117791000Y-90296999D01*
X117722879Y-90276997D01*
X117676386Y-90223341D01*
X117665000Y-90170999D01*
X117665001Y-88886241D01*
X117507784Y-88928368D01*
X117311546Y-89021969D01*
X117135652Y-89149763D01*
X117009383Y-89282823D01*
X116947983Y-89318467D01*
X116877059Y-89315258D01*
X116824350Y-89280401D01*
X116725461Y-89170575D01*
X116552969Y-89038218D01*
X116359241Y-88939509D01*
X116150784Y-88877761D01*
X116150783Y-88877760D01*
X115934553Y-88855034D01*
X115717794Y-88872093D01*
X115507788Y-88928365D01*
X115311546Y-89021969D01*
X115192423Y-89108517D01*
X115125555Y-89132376D01*
X115056404Y-89116295D01*
X115021840Y-89087572D01*
X114925574Y-88972846D01*
X114770426Y-88883271D01*
X114593999Y-88852163D01*
X113244002Y-88852163D01*
X112986081Y-88921273D01*
X112848846Y-89036426D01*
X112759271Y-89191574D01*
X112728163Y-89368001D01*
X112728163Y-90284001D01*
X112708161Y-90352122D01*
X112654505Y-90398615D01*
X112602163Y-90410001D01*
X112060837Y-90410001D01*
X111992716Y-90389999D01*
X111946223Y-90336343D01*
X111934837Y-90284001D01*
X111934837Y-89887499D01*
X111960005Y-89811942D01*
X111961129Y-89810442D01*
X111967520Y-89802591D01*
X112011827Y-89752423D01*
X112018440Y-89738338D01*
X112031665Y-89716327D01*
X112040995Y-89703877D01*
X112040998Y-89703872D01*
X112064484Y-89641221D01*
X112068411Y-89631900D01*
X112096860Y-89571307D01*
X112096860Y-89571306D01*
X112098982Y-89557107D01*
X112105616Y-89531503D01*
X112111230Y-89516529D01*
X112111232Y-89516519D01*
X112117001Y-89438885D01*
X112118038Y-89429600D01*
X112120512Y-89413045D01*
X112120512Y-89396311D01*
X112120859Y-89386970D01*
X112123091Y-89356945D01*
X112159649Y-89277190D01*
X112696600Y-88740240D01*
X112718461Y-88722774D01*
X112725364Y-88718418D01*
X112725366Y-88718417D01*
X112775273Y-88661908D01*
X112780621Y-88656218D01*
X112797372Y-88639468D01*
X112797380Y-88639458D01*
X112807125Y-88626456D01*
X112813510Y-88618613D01*
X112857813Y-88568449D01*
X112857814Y-88568448D01*
X112864428Y-88554360D01*
X112877658Y-88532342D01*
X112886984Y-88519898D01*
X112891295Y-88512024D01*
X112893515Y-88513239D01*
X112928101Y-88467196D01*
X113021376Y-88443471D01*
X113151800Y-88462224D01*
X113887623Y-88462224D01*
X114172823Y-88400183D01*
X114358074Y-88281129D01*
X114456823Y-88167168D01*
X114516549Y-88128785D01*
X114587546Y-88128785D01*
X114658045Y-88181561D01*
X114671869Y-88203072D01*
X114671870Y-88203073D01*
X114838293Y-88347280D01*
X114838293Y-88347281D01*
X115038603Y-88438758D01*
X115201810Y-88462224D01*
X115937623Y-88462224D01*
X116222823Y-88400183D01*
X116408074Y-88281129D01*
X116549438Y-88117987D01*
X116644662Y-88074500D01*
X118548034Y-88074500D01*
X118620223Y-88100778D01*
X118620878Y-88099643D01*
X118627315Y-88103359D01*
X118629031Y-88103984D01*
X118630429Y-88105157D01*
X118785571Y-88194727D01*
X118785574Y-88194728D01*
X118962001Y-88225837D01*
X119649862Y-88225837D01*
X119696865Y-88236322D01*
X119696904Y-88236194D01*
X119698628Y-88236715D01*
X119703414Y-88237783D01*
X119705682Y-88238848D01*
X119719881Y-88240970D01*
X119745484Y-88247603D01*
X119760463Y-88253218D01*
X119838107Y-88258988D01*
X119847397Y-88260027D01*
X119863933Y-88262499D01*
X119863949Y-88262500D01*
X119880672Y-88262500D01*
X119890010Y-88262846D01*
X119959996Y-88268047D01*
X119972976Y-88265276D01*
X119999281Y-88262500D01*
X120242482Y-88262500D01*
X120331578Y-88299405D01*
X120900282Y-88868110D01*
X120917748Y-88889971D01*
X120922104Y-88896874D01*
X120922105Y-88896876D01*
X120978614Y-88946783D01*
X120984304Y-88952131D01*
X121001051Y-88968879D01*
X121001056Y-88968883D01*
X121014066Y-88978634D01*
X121021907Y-88985018D01*
X121072075Y-89029325D01*
X121086160Y-89035938D01*
X121108171Y-89049163D01*
X121120621Y-89058493D01*
X121120626Y-89058496D01*
X121183277Y-89081982D01*
X121192598Y-89085909D01*
X121253192Y-89114358D01*
X121267391Y-89116480D01*
X121292994Y-89123113D01*
X121307973Y-89128728D01*
X121385617Y-89134498D01*
X121394907Y-89135537D01*
X121411443Y-89138009D01*
X121411459Y-89138010D01*
X121428182Y-89138010D01*
X121437520Y-89138356D01*
X121507506Y-89143557D01*
X121520486Y-89140786D01*
X121546791Y-89138010D01*
X125523491Y-89138010D01*
X125591612Y-89158012D01*
X125638105Y-89211668D01*
X125641892Y-89307104D01*
X125604745Y-89409165D01*
X125565000Y-89634567D01*
X125565000Y-89863433D01*
X125604745Y-90088833D01*
X125683020Y-90303892D01*
X125683024Y-90303900D01*
X125783998Y-90478791D01*
X126783905Y-89478885D01*
X126846217Y-89444859D01*
X126917033Y-89449924D01*
X126962095Y-89478885D01*
X127962002Y-90478791D01*
X128062976Y-90303900D01*
X128062980Y-90303892D01*
X128141255Y-90088833D01*
X128181000Y-89863433D01*
X128181000Y-89634567D01*
X128141256Y-89409167D01*
X128075848Y-89229464D01*
X128071345Y-89158610D01*
X128105863Y-89096570D01*
X128151463Y-89067856D01*
X128166051Y-89062589D01*
X128177592Y-89054050D01*
X128200385Y-89040638D01*
X128214953Y-89034014D01*
X128214959Y-89034010D01*
X128273954Y-88983176D01*
X128281260Y-88977339D01*
X128294683Y-88967407D01*
X128294689Y-88967403D01*
X128306507Y-88955585D01*
X128313352Y-88949230D01*
X128366527Y-88903410D01*
X128366531Y-88903406D01*
X128373756Y-88892260D01*
X128390392Y-88871699D01*
X130095600Y-87166492D01*
X130117457Y-87149027D01*
X130124364Y-87144669D01*
X130124369Y-87144664D01*
X130174267Y-87088166D01*
X130179615Y-87082476D01*
X130196372Y-87065720D01*
X130196379Y-87065712D01*
X130206124Y-87052708D01*
X130212513Y-87044860D01*
X130256813Y-86994701D01*
X130256814Y-86994700D01*
X130263426Y-86980616D01*
X130276655Y-86958599D01*
X130285985Y-86946150D01*
X130285986Y-86946148D01*
X130309472Y-86883497D01*
X130313399Y-86874176D01*
X130341848Y-86813583D01*
X130341848Y-86813582D01*
X130343970Y-86799383D01*
X130350603Y-86773780D01*
X130356218Y-86758801D01*
X130361988Y-86681157D01*
X130363027Y-86671867D01*
X130365499Y-86655331D01*
X130365500Y-86655315D01*
X130365500Y-86638592D01*
X130365846Y-86629254D01*
X130371047Y-86559268D01*
X130368276Y-86546288D01*
X130365500Y-86519983D01*
X130365500Y-86277837D01*
X130385502Y-86209716D01*
X130439158Y-86163223D01*
X130491500Y-86151837D01*
X130593998Y-86151837D01*
X130851920Y-86082727D01*
X130989154Y-85967574D01*
X131078729Y-85812426D01*
X131078728Y-85812426D01*
X131109837Y-85635999D01*
X131109837Y-84036002D01*
X131040727Y-83778081D01*
X130925574Y-83640846D01*
X130770427Y-83551272D01*
X130714380Y-83541389D01*
X130650768Y-83509861D01*
X130614298Y-83448947D01*
X130616551Y-83377986D01*
X130655269Y-83320781D01*
X130722428Y-83264427D01*
X130869543Y-83089104D01*
X130869545Y-83089101D01*
X130983976Y-82890901D01*
X130983980Y-82890892D01*
X131062255Y-82675833D01*
X131102000Y-82450433D01*
X131102000Y-82221567D01*
X131062255Y-81996167D01*
X130983980Y-81781108D01*
X130983978Y-81781103D01*
X130948699Y-81719998D01*
X130931962Y-81651003D01*
X130955183Y-81583911D01*
X131010990Y-81540024D01*
X131069319Y-81531525D01*
X131438923Y-81565400D01*
G37*
%TD.AperFunction*%
%TA.AperFunction,Conductor*%
G36*
X107456446Y-79054699D02*
G01*
X107487776Y-79137847D01*
X107487776Y-79985623D01*
X107549817Y-80270823D01*
X107668014Y-80454740D01*
X107688016Y-80522861D01*
X107657240Y-80605374D01*
X107602719Y-80668293D01*
X107511242Y-80868603D01*
X107487776Y-81031810D01*
X107487776Y-82017623D01*
X107549817Y-82302823D01*
X107668014Y-82486740D01*
X107688016Y-82554861D01*
X107657240Y-82637374D01*
X107602719Y-82700293D01*
X107511242Y-82900603D01*
X107487776Y-83063810D01*
X107487776Y-83312000D01*
X108704000Y-83312001D01*
X108772121Y-83332003D01*
X108818614Y-83385659D01*
X108830000Y-83438001D01*
X108829999Y-83694000D01*
X108809997Y-83762121D01*
X108756341Y-83808614D01*
X108703999Y-83820000D01*
X107487776Y-83819999D01*
X107487776Y-84049623D01*
X107549817Y-84334823D01*
X107668871Y-84520074D01*
X107835293Y-84664280D01*
X107835293Y-84664281D01*
X108035603Y-84755758D01*
X108043880Y-84758189D01*
X108103606Y-84796574D01*
X108133098Y-84897016D01*
X108122776Y-84968809D01*
X108122776Y-85217000D01*
X109009191Y-85217001D01*
X109009193Y-85217000D01*
X109339000Y-85217001D01*
X109407121Y-85237003D01*
X109453614Y-85290659D01*
X109465000Y-85343001D01*
X109464999Y-86307190D01*
X109465000Y-86307192D01*
X109464999Y-87301191D01*
X109465000Y-87301193D01*
X109464999Y-87631000D01*
X109444997Y-87699121D01*
X109391341Y-87745614D01*
X109338999Y-87757000D01*
X108122776Y-87756999D01*
X108122776Y-87769010D01*
X108102774Y-87837131D01*
X108049118Y-87883624D01*
X107996776Y-87895010D01*
X105826028Y-87895010D01*
X105736933Y-87858105D01*
X105492742Y-87613914D01*
X105455837Y-87524819D01*
X105455837Y-86449002D01*
X105386727Y-86191081D01*
X105271574Y-86053846D01*
X105116426Y-85964272D01*
X105061704Y-85954623D01*
X108122776Y-85954623D01*
X108184817Y-86239823D01*
X108303014Y-86423740D01*
X108323016Y-86491861D01*
X108292240Y-86574374D01*
X108237719Y-86637293D01*
X108146242Y-86837603D01*
X108122776Y-87000810D01*
X108122776Y-87249000D01*
X108957000Y-87249001D01*
X108957001Y-86666810D01*
X108957000Y-86666808D01*
X108957001Y-85725000D01*
X108122776Y-85724999D01*
X108122776Y-85954623D01*
X105061704Y-85954623D01*
X104977927Y-85939851D01*
X104914314Y-85908324D01*
X104877845Y-85847410D01*
X104877756Y-85845968D01*
X104140000Y-85108210D01*
X103398008Y-85850204D01*
X103394555Y-85872346D01*
X103347426Y-85925444D01*
X103313184Y-85940349D01*
X103082081Y-86002273D01*
X102944846Y-86117426D01*
X102855271Y-86272574D01*
X102824163Y-86449001D01*
X102824163Y-88048998D01*
X102893273Y-88306920D01*
X103008426Y-88444154D01*
X103163574Y-88533729D01*
X103340001Y-88564837D01*
X104415819Y-88564837D01*
X104504914Y-88601742D01*
X104925279Y-89022107D01*
X104942746Y-89043967D01*
X104947106Y-89050877D01*
X105003614Y-89100783D01*
X105009304Y-89106131D01*
X105026051Y-89122879D01*
X105026056Y-89122883D01*
X105039066Y-89132634D01*
X105046907Y-89139018D01*
X105097075Y-89183325D01*
X105111160Y-89189938D01*
X105133171Y-89203163D01*
X105145621Y-89212493D01*
X105145626Y-89212496D01*
X105208277Y-89235982D01*
X105217598Y-89239909D01*
X105278192Y-89268358D01*
X105292391Y-89270480D01*
X105317994Y-89277113D01*
X105332973Y-89282728D01*
X105410617Y-89288498D01*
X105419907Y-89289537D01*
X105436443Y-89292009D01*
X105436459Y-89292010D01*
X105453182Y-89292010D01*
X105462520Y-89292356D01*
X105532506Y-89297557D01*
X105545486Y-89294786D01*
X105571791Y-89292010D01*
X105588969Y-89292010D01*
X105657090Y-89312012D01*
X105703583Y-89365668D01*
X105713687Y-89435942D01*
X105694644Y-89486630D01*
X105692579Y-89489810D01*
X105609372Y-89690687D01*
X105588475Y-89789000D01*
X106872000Y-89789001D01*
X106940121Y-89809003D01*
X106986614Y-89862659D01*
X106998000Y-89915001D01*
X106997999Y-90171000D01*
X106977997Y-90239121D01*
X106924341Y-90285614D01*
X106871999Y-90297000D01*
X105586398Y-90296999D01*
X105592489Y-90335450D01*
X105665062Y-90540392D01*
X105665066Y-90540400D01*
X105773772Y-90728686D01*
X105878384Y-90851169D01*
X105907415Y-90915958D01*
X105896810Y-90986159D01*
X105849936Y-91039481D01*
X105782573Y-91059000D01*
X102107000Y-91059000D01*
X102038879Y-91038998D01*
X101992386Y-90985342D01*
X101981000Y-90933000D01*
X101981000Y-84634567D01*
X102832000Y-84634567D01*
X102832000Y-84863433D01*
X102871745Y-85088833D01*
X102950020Y-85303892D01*
X102950024Y-85303900D01*
X103050998Y-85478790D01*
X103780790Y-84749000D01*
X104499210Y-84749000D01*
X105229003Y-85478791D01*
X105329976Y-85303900D01*
X105329980Y-85303892D01*
X105408255Y-85088833D01*
X105448000Y-84863433D01*
X105448000Y-84634567D01*
X105408255Y-84409167D01*
X105329980Y-84194108D01*
X105329976Y-84194100D01*
X105229003Y-84019209D01*
X104499210Y-84749000D01*
X103780790Y-84749000D01*
X103050998Y-84019210D01*
X102950024Y-84194100D01*
X102950020Y-84194108D01*
X102871745Y-84409167D01*
X102832000Y-84634567D01*
X101981000Y-84634567D01*
X101981000Y-83659997D01*
X103410209Y-83659997D01*
X104140000Y-84389790D01*
X104869791Y-83659997D01*
X104694900Y-83559024D01*
X104694892Y-83559020D01*
X104479833Y-83480745D01*
X104254433Y-83441000D01*
X104025567Y-83441000D01*
X103800167Y-83480745D01*
X103585108Y-83559020D01*
X103585100Y-83559024D01*
X103410209Y-83659997D01*
X101981000Y-83659997D01*
X101981000Y-81689808D01*
X102001002Y-81621687D01*
X102054658Y-81575194D01*
X102109474Y-81563832D01*
X102166897Y-81564960D01*
X102166908Y-81564959D01*
X102170749Y-81564486D01*
X102197958Y-81564094D01*
X102201821Y-81564457D01*
X102201836Y-81564458D01*
X102208064Y-81564117D01*
X102208064Y-81564116D01*
X102208337Y-81564101D01*
X102701818Y-81534137D01*
X102701826Y-81534136D01*
X102705629Y-81533354D01*
X102732723Y-81530782D01*
X102736598Y-81530835D01*
X102742816Y-81529991D01*
X102742816Y-81529990D01*
X102742948Y-81529972D01*
X103232566Y-81460508D01*
X103236290Y-81459425D01*
X103263077Y-81454689D01*
X103266958Y-81454429D01*
X103272943Y-81453122D01*
X103272972Y-81453115D01*
X103755674Y-81344557D01*
X103759302Y-81343177D01*
X103785630Y-81336308D01*
X103789470Y-81335739D01*
X103789477Y-81335738D01*
X103795498Y-81333905D01*
X103795498Y-81333904D01*
X103795691Y-81333845D01*
X104267804Y-81187025D01*
X104267812Y-81187022D01*
X104271310Y-81185359D01*
X104297007Y-81176398D01*
X104300784Y-81175524D01*
X104306666Y-81173204D01*
X104765650Y-80988929D01*
X104765657Y-80988926D01*
X104769012Y-80986987D01*
X104793902Y-80975997D01*
X104797595Y-80974824D01*
X104797604Y-80974820D01*
X104803133Y-80972108D01*
X104803283Y-80972034D01*
X104803283Y-80972035D01*
X104803303Y-80972025D01*
X105246008Y-80751543D01*
X105246010Y-80751542D01*
X105249199Y-80749340D01*
X105273132Y-80736386D01*
X105276725Y-80734918D01*
X105282283Y-80731614D01*
X105705781Y-80476398D01*
X105705790Y-80476392D01*
X105708798Y-80473937D01*
X105731595Y-80459118D01*
X105735074Y-80457358D01*
X105740212Y-80453715D01*
X106142009Y-80165262D01*
X106142021Y-80165253D01*
X106144804Y-80162581D01*
X106166371Y-80145958D01*
X106169669Y-80143943D01*
X106174455Y-80139939D01*
X106174645Y-80139779D01*
X106551877Y-79820147D01*
X106554441Y-79817257D01*
X106574606Y-79798956D01*
X106577741Y-79796676D01*
X106582200Y-79792290D01*
X106932751Y-79443267D01*
X106935079Y-79440175D01*
X106953705Y-79420323D01*
X106956641Y-79417805D01*
X106956651Y-79417794D01*
X106960622Y-79413206D01*
X107266001Y-79055974D01*
X107325469Y-79017191D01*
X107396464Y-79016716D01*
X107456446Y-79054699D01*
G37*
%TD.AperFunction*%
%TA.AperFunction,Conductor*%
G36*
X125959104Y-83030988D02*
G01*
X125968397Y-83032027D01*
X125984933Y-83034499D01*
X125984949Y-83034500D01*
X126001672Y-83034500D01*
X126011010Y-83034846D01*
X126080996Y-83040047D01*
X126093976Y-83037276D01*
X126120281Y-83034500D01*
X128614631Y-83034500D01*
X128682752Y-83054502D01*
X128714626Y-83085135D01*
X128714920Y-83084889D01*
X128717212Y-83087621D01*
X128717843Y-83088227D01*
X128718459Y-83089106D01*
X128865572Y-83264427D01*
X128942246Y-83328765D01*
X128981573Y-83387875D01*
X128982699Y-83458863D01*
X128945268Y-83519190D01*
X128893866Y-83546994D01*
X128736081Y-83589273D01*
X128598846Y-83704426D01*
X128509271Y-83859574D01*
X128478163Y-84036001D01*
X128478163Y-85635998D01*
X128547273Y-85893920D01*
X128662426Y-86031154D01*
X128817571Y-86120727D01*
X128864381Y-86128981D01*
X128927993Y-86160509D01*
X128968500Y-86253067D01*
X128968500Y-86265745D01*
X128931596Y-86354840D01*
X128403933Y-86882504D01*
X128341620Y-86916529D01*
X128270805Y-86911465D01*
X128213969Y-86868918D01*
X128188837Y-86793409D01*
X128188837Y-86449002D01*
X128119727Y-86191081D01*
X128004574Y-86053846D01*
X127849426Y-85964271D01*
X127672999Y-85933163D01*
X126073002Y-85933163D01*
X125815081Y-86002273D01*
X125677846Y-86117426D01*
X125588271Y-86272574D01*
X125557163Y-86449001D01*
X125557163Y-86580001D01*
X125537161Y-86648122D01*
X125483505Y-86694615D01*
X125431163Y-86706001D01*
X124503837Y-86706001D01*
X124435716Y-86685999D01*
X124389223Y-86632343D01*
X124377837Y-86580001D01*
X124377837Y-85960002D01*
X124308727Y-85702081D01*
X124193574Y-85564846D01*
X124038426Y-85475271D01*
X123861999Y-85444163D01*
X123497500Y-85444163D01*
X123429379Y-85424161D01*
X123382886Y-85370505D01*
X123371500Y-85318163D01*
X123371500Y-84623845D01*
X123391502Y-84555724D01*
X123429379Y-84517847D01*
X123502074Y-84471129D01*
X123600823Y-84357168D01*
X123660549Y-84318785D01*
X123731546Y-84318785D01*
X123802045Y-84371561D01*
X123815869Y-84393072D01*
X123815870Y-84393073D01*
X123982293Y-84537280D01*
X123982293Y-84537281D01*
X124182603Y-84628758D01*
X124345810Y-84652224D01*
X124469000Y-84652224D01*
X124469000Y-83693000D01*
X124977000Y-83693000D01*
X124977000Y-84652224D01*
X125081623Y-84652224D01*
X125366823Y-84590183D01*
X125552074Y-84471129D01*
X125696280Y-84304707D01*
X125696281Y-84304707D01*
X125787759Y-84104397D01*
X125787758Y-84104397D01*
X125811224Y-83941190D01*
X125811224Y-83693000D01*
X124977000Y-83693000D01*
X124469000Y-83693000D01*
X124469000Y-83311000D01*
X124489002Y-83242879D01*
X124542658Y-83196386D01*
X124595000Y-83185000D01*
X125811224Y-83185000D01*
X125811224Y-83155710D01*
X125831226Y-83087589D01*
X125884882Y-83041096D01*
X125946559Y-83030056D01*
X125959104Y-83030988D01*
G37*
%TD.AperFunction*%
%TA.AperFunction,Conductor*%
G36*
X118163698Y-81556295D02*
G01*
X118220534Y-81598842D01*
X118241923Y-81643869D01*
X118296696Y-81863552D01*
X118296697Y-81863555D01*
X118392739Y-82082348D01*
X118524278Y-82281836D01*
X118687540Y-82456303D01*
X118687544Y-82456307D01*
X118877868Y-82600770D01*
X118877870Y-82600772D01*
X119089817Y-82711105D01*
X119317321Y-82784148D01*
X119553887Y-82817817D01*
X119778982Y-82811530D01*
X119847635Y-82829622D01*
X119895608Y-82881959D01*
X119907670Y-82951924D01*
X119871596Y-83026576D01*
X119741903Y-83156270D01*
X119720041Y-83173737D01*
X119713138Y-83178093D01*
X119713132Y-83178097D01*
X119663230Y-83234601D01*
X119657882Y-83240292D01*
X119641130Y-83257043D01*
X119641124Y-83257050D01*
X119631379Y-83270053D01*
X119624993Y-83277897D01*
X119580688Y-83328063D01*
X119574075Y-83342149D01*
X119560843Y-83364170D01*
X119551516Y-83376614D01*
X119528022Y-83439283D01*
X119524095Y-83448601D01*
X119495656Y-83509176D01*
X119493533Y-83523378D01*
X119486899Y-83548979D01*
X119481283Y-83563960D01*
X119481282Y-83563967D01*
X119475510Y-83641621D01*
X119474473Y-83650904D01*
X119472002Y-83667440D01*
X119472002Y-83684158D01*
X119471656Y-83693496D01*
X119466454Y-83763496D01*
X119469226Y-83776481D01*
X119472002Y-83802785D01*
X119472002Y-84368163D01*
X119452000Y-84436284D01*
X119398344Y-84482777D01*
X119346002Y-84494163D01*
X118962002Y-84494163D01*
X118704081Y-84563273D01*
X118566846Y-84678426D01*
X118516956Y-84764838D01*
X118465574Y-84813831D01*
X118395860Y-84827267D01*
X118329949Y-84800881D01*
X118288767Y-84743049D01*
X118281837Y-84701838D01*
X118281837Y-84055002D01*
X118212727Y-83797081D01*
X118097574Y-83659846D01*
X117942426Y-83570271D01*
X117765999Y-83539163D01*
X116940181Y-83539163D01*
X116851086Y-83502258D01*
X115796422Y-82447595D01*
X115762397Y-82385283D01*
X115767461Y-82314468D01*
X115810008Y-82257632D01*
X115885517Y-82232500D01*
X117001635Y-82232500D01*
X117029442Y-82235607D01*
X117037405Y-82237409D01*
X117037408Y-82237409D01*
X117112632Y-82232742D01*
X117120434Y-82232500D01*
X117144149Y-82232500D01*
X117160244Y-82230194D01*
X117170311Y-82229163D01*
X117237106Y-82225020D01*
X117237103Y-82225020D01*
X117251737Y-82219737D01*
X117276661Y-82213523D01*
X117292056Y-82211318D01*
X117292062Y-82211316D01*
X117352994Y-82183613D01*
X117362359Y-82179800D01*
X117425299Y-82157078D01*
X117436838Y-82148540D01*
X117459631Y-82135128D01*
X117474199Y-82128504D01*
X117474205Y-82128500D01*
X117533201Y-82077665D01*
X117540504Y-82071830D01*
X117553931Y-82061895D01*
X117553939Y-82061888D01*
X117565744Y-82050083D01*
X117572592Y-82043725D01*
X117625774Y-81997901D01*
X117625775Y-81997900D01*
X117633002Y-81986750D01*
X117649639Y-81966188D01*
X118030571Y-81585256D01*
X118092883Y-81551230D01*
X118163698Y-81556295D01*
G37*
%TD.AperFunction*%
%TD*%
M02*
